solid OpenSCAD_Model
  facet normal -1 0 0
    outer loop
      vertex 0 -6 -9
      vertex 0 -6 9
      vertex 0 -4.4 -1.15
    endloop
  endfacet
  facet normal -1 0 0
    outer loop
      vertex 0 -6 -9
      vertex 0 -4.4 -1.15
      vertex 0 0 -1.15
    endloop
  endfacet
  facet normal -1 0 0
    outer loop
      vertex 0 -6 9
      vertex 0 -4.4 1.15
      vertex 0 -4.4 -1.15
    endloop
  endfacet
  facet normal -1 0 0
    outer loop
      vertex 0 -6 9
      vertex 0 0 9
      vertex 0 -4.4 1.15
    endloop
  endfacet
  facet normal 0 -1 0
    outer loop
      vertex 0 -6 -9
      vertex 1.8 -6 9
      vertex 0 -6 9
    endloop
  endfacet
  facet normal 0 0 1
    outer loop
      vertex 0 -6 9
      vertex 1.8 -6 9
      vertex 0 0 9
    endloop
  endfacet
  facet normal -1 0 0
    outer loop
      vertex 0 -6 -9
      vertex 0 0 -1.15
      vertex 0 0 -9
    endloop
  endfacet
  facet normal 0 0 -1
    outer loop
      vertex 0 -6 -9
      vertex 0 0 -9
      vertex 1.8 0 -9
    endloop
  endfacet
  facet normal 0 1 0
    outer loop
      vertex 0 0 -9
      vertex 0 0 -1.15
      vertex 1.8 0 -1.15
    endloop
  endfacet
  facet normal -1 0 0
    outer loop
      vertex 0 0 9
      vertex 0 0 1.15
      vertex 0 -4.4 1.15
    endloop
  endfacet
  facet normal 0 1 0
    outer loop
      vertex 0 0 9
      vertex 1.8 0 9
      vertex 0 0 1.15
    endloop
  endfacet
  facet normal 0 -1 0
    outer loop
      vertex 0 -6 -9
      vertex 1.8 -6 -9
      vertex 1.8 -6 9
    endloop
  endfacet
  facet normal 0 0 -1
    outer loop
      vertex 0 -6 -9
      vertex 1.8 0 -9
      vertex 1.8 -6 -9
    endloop
  endfacet
  facet normal 1 0 0
    outer loop
      vertex 1.8 -6 -9
      vertex 1.8 -4.4 -1.15
      vertex 1.8 -4.4 1.15
    endloop
  endfacet
  facet normal 1 0 0
    outer loop
      vertex 1.8 -6 -9
      vertex 1.8 0 -9
      vertex 1.8 -4.4 -1.15
    endloop
  endfacet
  facet normal 1 0 0
    outer loop
      vertex 1.8 -6 -9
      vertex 1.8 -4.4 1.15
      vertex 1.8 -6 9
    endloop
  endfacet
  facet normal 1 0 0
    outer loop
      vertex 1.8 -6 9
      vertex 1.8 -4.4 1.15
      vertex 1.8 0 1.15
    endloop
  endfacet
  facet normal 0 1 0
    outer loop
      vertex 0 0 -9
      vertex 1.8 0 -1.15
      vertex 1.8 0 -9
    endloop
  endfacet
  facet normal 1 0 0
    outer loop
      vertex 1.8 0 -9
      vertex 1.8 0 -1.15
      vertex 1.8 -4.4 -1.15
    endloop
  endfacet
  facet normal 0 0 1
    outer loop
      vertex 0 0 9
      vertex 1.8 -6 9
      vertex 1.8 0 9
    endloop
  endfacet
  facet normal 0 1 0
    outer loop
      vertex 1.8 0 9
      vertex 1.8 0 1.15
      vertex 0 0 1.15
    endloop
  endfacet
  facet normal 1 0 0
    outer loop
      vertex 1.8 -6 9
      vertex 1.8 0 1.15
      vertex 1.8 0 9
    endloop
  endfacet
  facet normal 0 1 0
    outer loop
      vertex 0 -4.4 -1.15
      vertex 0 -4.4 1.15
      vertex 1.8 -4.4 1.15
    endloop
  endfacet
  facet normal 0 0 1
    outer loop
      vertex 0 -4.4 -1.15
      vertex 1.8 -4.4 -1.15
      vertex 0 0 -1.15
    endloop
  endfacet
  facet normal 0 0 -1
    outer loop
      vertex 0 0 1.15
      vertex 1.8 0 1.15
      vertex 0 -4.4 1.15
    endloop
  endfacet
  facet normal 0 1 0
    outer loop
      vertex 0 -4.4 -1.15
      vertex 1.8 -4.4 1.15
      vertex 1.8 -4.4 -1.15
    endloop
  endfacet
  facet normal 0 0 1
    outer loop
      vertex 0 0 -1.15
      vertex 1.8 -4.4 -1.15
      vertex 1.8 0 -1.15
    endloop
  endfacet
  facet normal 0 0 -1
    outer loop
      vertex 0 -4.4 1.15
      vertex 1.8 0 1.15
      vertex 1.8 -4.4 1.15
    endloop
  endfacet
endsolid OpenSCAD_Model
