solid OpenSCAD_Model
  facet normal 0 -1 0
    outer loop
      vertex 20.799999997019768 -2.7511328160762787 0
      vertex 14.5 -2.7511328160762787 2
      vertex 14.5 -2.7511328160762787 0
    endloop
  endfacet
  facet normal 0 -1 0
    outer loop
      vertex 20.799999997019768 -2.7511328160762787 0
      vertex 20.799999997019768 -2.7511328160762787 2
      vertex 14.5 -2.7511328160762787 2
    endloop
  endfacet
  facet normal 1 0 0
    outer loop
      vertex 20.799999997019768 31 0
      vertex 20.799999997019768 -2.7511328160762787 2
      vertex 20.799999997019768 -2.7511328160762787 0
    endloop
  endfacet
  facet normal 1 0 0
    outer loop
      vertex 20.799999997019768 31 0
      vertex 20.799999997019768 31 2
      vertex 20.799999997019768 -2.7511328160762787 2
    endloop
  endfacet
  facet normal 0 1 0
    outer loop
      vertex 15.799999997019768 31 0
      vertex 20.799999997019768 31 2
      vertex 20.799999997019768 31 0
    endloop
  endfacet
  facet normal 0 1 0
    outer loop
      vertex 15.799999997019768 31 0
      vertex 15.799999997019768 31 2
      vertex 20.799999997019768 31 2
    endloop
  endfacet
  facet normal -1 0 0
    outer loop
      vertex 15.799999997019768 19.75500000268221 0
      vertex 15.799999997019768 31 2
      vertex 15.799999997019768 31 0
    endloop
  endfacet
  facet normal -1 0 0
    outer loop
      vertex 15.799999997019768 19.75500000268221 0
      vertex 15.799999997019768 19.75500000268221 2
      vertex 15.799999997019768 31 2
    endloop
  endfacet
  facet normal 0 1 0
    outer loop
      vertex 14.549999997019768 19.75500000268221 0
      vertex 15.799999997019768 19.75500000268221 2
      vertex 15.799999997019768 19.75500000268221 0
    endloop
  endfacet
  facet normal 0 1 0
    outer loop
      vertex 14.549999997019768 19.75500000268221 0
      vertex 14.549999997019768 19.75500000268221 2
      vertex 15.799999997019768 19.75500000268221 2
    endloop
  endfacet
  facet normal -1 0 0
    outer loop
      vertex 14.549999997019768 17.95499999821186 0
      vertex 14.549999997019768 19.75500000268221 2
      vertex 14.549999997019768 19.75500000268221 0
    endloop
  endfacet
  facet normal -1 0 0
    outer loop
      vertex 14.549999997019768 17.95499999821186 0
      vertex 14.549999997019768 17.95499999821186 2
      vertex 14.549999997019768 19.75500000268221 2
    endloop
  endfacet
  facet normal 0 -1 0
    outer loop
      vertex 15.799999997019768 17.95499999821186 0
      vertex 14.549999997019768 17.95499999821186 2
      vertex 14.549999997019768 17.95499999821186 0
    endloop
  endfacet
  facet normal 0 -1 0
    outer loop
      vertex 15.799999997019768 17.95499999821186 0
      vertex 15.799999997019768 17.95499999821186 2
      vertex 14.549999997019768 17.95499999821186 2
    endloop
  endfacet
  facet normal -1 0 0
    outer loop
      vertex 15.799999997019768 8.755000002682209 0
      vertex 15.799999997019768 17.95499999821186 2
      vertex 15.799999997019768 17.95499999821186 0
    endloop
  endfacet
  facet normal -1 0 0
    outer loop
      vertex 15.799999997019768 8.755000002682209 0
      vertex 15.799999997019768 8.755000002682209 2
      vertex 15.799999997019768 17.95499999821186 2
    endloop
  endfacet
  facet normal 0 1 0
    outer loop
      vertex 14.549999997019768 8.755000002682209 0
      vertex 15.799999997019768 8.755000002682209 2
      vertex 15.799999997019768 8.755000002682209 0
    endloop
  endfacet
  facet normal 0 1 0
    outer loop
      vertex 14.549999997019768 8.755000002682209 0
      vertex 14.549999997019768 8.755000002682209 2
      vertex 15.799999997019768 8.755000002682209 2
    endloop
  endfacet
  facet normal -1 0 0
    outer loop
      vertex 14.549999997019768 6.954999998211861 0
      vertex 14.549999997019768 8.755000002682209 2
      vertex 14.549999997019768 8.755000002682209 0
    endloop
  endfacet
  facet normal -1 0 0
    outer loop
      vertex 14.549999997019768 6.954999998211861 0
      vertex 14.549999997019768 6.954999998211861 2
      vertex 14.549999997019768 8.755000002682209 2
    endloop
  endfacet
  facet normal 0 -1 0
    outer loop
      vertex 15.799999997019768 6.954999998211861 0
      vertex 14.549999997019768 6.954999998211861 2
      vertex 14.549999997019768 6.954999998211861 0
    endloop
  endfacet
  facet normal 0 -1 0
    outer loop
      vertex 15.799999997019768 6.954999998211861 0
      vertex 15.799999997019768 6.954999998211861 2
      vertex 14.549999997019768 6.954999998211861 2
    endloop
  endfacet
  facet normal -1 0 0
    outer loop
      vertex 15.799999997019768 1.2488671839237213 0
      vertex 15.799999997019768 6.954999998211861 2
      vertex 15.799999997019768 6.954999998211861 0
    endloop
  endfacet
  facet normal -1 0 0
    outer loop
      vertex 15.799999997019768 1.2488671839237213 0
      vertex 15.799999997019768 1.2488671839237213 2
      vertex 15.799999997019768 6.954999998211861 2
    endloop
  endfacet
  facet normal 0 1 0
    outer loop
      vertex 14.5 1.2488671839237213 0
      vertex 15.799999997019768 1.2488671839237213 2
      vertex 15.799999997019768 1.2488671839237213 0
    endloop
  endfacet
  facet normal 0 1 0
    outer loop
      vertex 14.5 1.2488671839237213 0
      vertex 14.5 1.2488671839237213 2
      vertex 15.799999997019768 1.2488671839237213 2
    endloop
  endfacet
  facet normal -0.09941443511665507 0.9950461145547156 0
    outer loop
      vertex 2 0 0
      vertex 14.5 1.2488671839237213 2
      vertex 14.5 1.2488671839237213 0
    endloop
  endfacet
  facet normal -0.09941443511665507 0.9950461145547156 0
    outer loop
      vertex 2 0 0
      vertex 2 0 2
      vertex 14.5 1.2488671839237213 2
    endloop
  endfacet
  facet normal 0 1 0
    outer loop
      vertex 0 0 0
      vertex 2 0 2
      vertex 2 0 0
    endloop
  endfacet
  facet normal 0 1 0
    outer loop
      vertex 0 0 0
      vertex 0 0 2
      vertex 2 0 2
    endloop
  endfacet
  facet normal -1 0 0
    outer loop
      vertex 0 -4 0
      vertex 0 0 2
      vertex 0 0 0
    endloop
  endfacet
  facet normal -1 0 0
    outer loop
      vertex 0 -4 0
      vertex 0 -4 2
      vertex 0 0 2
    endloop
  endfacet
  facet normal 0 -1 0
    outer loop
      vertex 2 -4 0
      vertex 0 -4 2
      vertex 0 -4 0
    endloop
  endfacet
  facet normal 0 -1 0
    outer loop
      vertex 2 -4 0
      vertex 2 -4 2
      vertex 0 -4 2
    endloop
  endfacet
  facet normal 0.09941443511665507 -0.9950461145547156 0
    outer loop
      vertex 14.5 -2.7511328160762787 0
      vertex 2 -4 2
      vertex 2 -4 0
    endloop
  endfacet
  facet normal 0.09941443511665507 -0.9950461145547156 0
    outer loop
      vertex 14.5 -2.7511328160762787 0
      vertex 14.5 -2.7511328160762787 2
      vertex 2 -4 2
    endloop
  endfacet
  facet normal 0.29028471407929957 0.9569403245615158 0
    outer loop
      vertex 18.012987427413464 18.162090353667736 0
      vertex 18.012987427413464 18.162090353667736 2
      vertex 18.1536822617054 18.119411036372185 0
    endloop
  endfacet
  facet normal 0.29028471407929957 0.9569403245615158 0
    outer loop
      vertex 18.1536822617054 18.119411036372185 2
      vertex 18.1536822617054 18.119411036372185 0
      vertex 18.012987427413464 18.162090353667736 2
    endloop
  endfacet
  facet normal 0.4713967348393121 0.8819212654102606 0
    outer loop
      vertex 17.883322328329086 18.231397792696953 0
      vertex 17.883322328329086 18.231397792696953 2
      vertex 18.012987427413464 18.162090353667736 0
    endloop
  endfacet
  facet normal 0.4713967348393121 0.8819212654102606 0
    outer loop
      vertex 18.012987427413464 18.162090353667736 2
      vertex 18.012987427413464 18.162090353667736 0
      vertex 17.883322328329086 18.231397792696953 2
    endloop
  endfacet
  facet normal 0.6343932547907689 0.7730104774684329 0
    outer loop
      vertex 17.76966991275549 18.324669912457466 0
      vertex 17.76966991275549 18.324669912457466 2
      vertex 17.883322328329086 18.231397792696953 0
    endloop
  endfacet
  facet normal 0.6343932547907689 0.7730104774684329 0
    outer loop
      vertex 17.883322328329086 18.231397792696953 2
      vertex 17.883322328329086 18.231397792696953 0
      vertex 17.76966991275549 18.324669912457466 2
    endloop
  endfacet
  facet normal 0.7730104774684329 0.6343932547907689 0
    outer loop
      vertex 17.676397792994976 18.438322328031063 0
      vertex 17.676397792994976 18.438322328031063 2
      vertex 17.76966991275549 18.324669912457466 0
    endloop
  endfacet
  facet normal 0.7730104774684329 0.6343932547907689 0
    outer loop
      vertex 17.76966991275549 18.324669912457466 2
      vertex 17.76966991275549 18.324669912457466 0
      vertex 17.676397792994976 18.438322328031063 2
    endloop
  endfacet
  facet normal 0.8819212654102606 0.4713967348393121 0
    outer loop
      vertex 17.60709035396576 18.56798742711544 0
      vertex 17.60709035396576 18.56798742711544 2
      vertex 17.676397792994976 18.438322328031063 0
    endloop
  endfacet
  facet normal 0.8819212654102606 0.4713967348393121 0
    outer loop
      vertex 17.676397792994976 18.438322328031063 2
      vertex 17.676397792994976 18.438322328031063 0
      vertex 17.60709035396576 18.56798742711544 2
    endloop
  endfacet
  facet normal 0.9569403245615158 0.29028471407929957 0
    outer loop
      vertex 17.564411036670208 18.708682261407375 0
      vertex 17.564411036670208 18.708682261407375 2
      vertex 17.60709035396576 18.56798742711544 0
    endloop
  endfacet
  facet normal 0.9569403245615158 0.29028471407929957 0
    outer loop
      vertex 17.60709035396576 18.56798742711544 2
      vertex 17.60709035396576 18.56798742711544 0
      vertex 17.564411036670208 18.708682261407375 2
    endloop
  endfacet
  facet normal 0.9951847262984812 0.09801714412395965 0
    outer loop
      vertex 17.549999997019768 18.854999996721745 0
      vertex 17.549999997019768 18.854999996721745 2
      vertex 17.564411036670208 18.708682261407375 0
    endloop
  endfacet
  facet normal 0.9951847262984812 0.09801714412395965 0
    outer loop
      vertex 17.564411036670208 18.708682261407375 2
      vertex 17.564411036670208 18.708682261407375 0
      vertex 17.549999997019768 18.854999996721745 2
    endloop
  endfacet
  facet normal 0.9951847267853376 -0.09801713918082348 0
    outer loop
      vertex 17.564411036670208 19.001317739486694 0
      vertex 17.564411036670208 19.001317739486694 2
      vertex 17.549999997019768 18.854999996721745 0
    endloop
  endfacet
  facet normal 0.9951847267853376 -0.09801713918082348 0
    outer loop
      vertex 17.549999997019768 18.854999996721745 2
      vertex 17.549999997019768 18.854999996721745 0
      vertex 17.564411036670208 19.001317739486694 2
    endloop
  endfacet
  facet normal 0.9569403245615158 -0.29028471407929957 0
    outer loop
      vertex 17.60709035396576 19.14201257377863 0
      vertex 17.60709035396576 19.14201257377863 2
      vertex 17.564411036670208 19.001317739486694 0
    endloop
  endfacet
  facet normal 0.9569403245615158 -0.29028471407929957 0
    outer loop
      vertex 17.564411036670208 19.001317739486694 2
      vertex 17.564411036670208 19.001317739486694 0
      vertex 17.60709035396576 19.14201257377863 2
    endloop
  endfacet
  facet normal 0.8819212654102606 -0.4713967348393121 0
    outer loop
      vertex 17.676397792994976 19.271677672863007 0
      vertex 17.676397792994976 19.271677672863007 2
      vertex 17.60709035396576 19.14201257377863 0
    endloop
  endfacet
  facet normal 0.8819212654102606 -0.4713967348393121 0
    outer loop
      vertex 17.60709035396576 19.14201257377863 2
      vertex 17.60709035396576 19.14201257377863 0
      vertex 17.676397792994976 19.271677672863007 2
    endloop
  endfacet
  facet normal 0.7730104774684329 -0.6343932547907689 0
    outer loop
      vertex 17.76966991275549 19.385330088436604 0
      vertex 17.76966991275549 19.385330088436604 2
      vertex 17.676397792994976 19.271677672863007 0
    endloop
  endfacet
  facet normal 0.7730104774684329 -0.6343932547907689 0
    outer loop
      vertex 17.676397792994976 19.271677672863007 2
      vertex 17.676397792994976 19.271677672863007 0
      vertex 17.76966991275549 19.385330088436604 2
    endloop
  endfacet
  facet normal 0.6343932547907689 -0.7730104774684329 0
    outer loop
      vertex 17.883322328329086 19.478602208197117 0
      vertex 17.883322328329086 19.478602208197117 2
      vertex 17.76966991275549 19.385330088436604 0
    endloop
  endfacet
  facet normal 0.6343932547907689 -0.7730104774684329 0
    outer loop
      vertex 17.76966991275549 19.385330088436604 2
      vertex 17.76966991275549 19.385330088436604 0
      vertex 17.883322328329086 19.478602208197117 2
    endloop
  endfacet
  facet normal 0.4713967348393121 -0.8819212654102606 0
    outer loop
      vertex 18.012987427413464 19.547909647226334 0
      vertex 18.012987427413464 19.547909647226334 2
      vertex 17.883322328329086 19.478602208197117 0
    endloop
  endfacet
  facet normal 0.4713967348393121 -0.8819212654102606 0
    outer loop
      vertex 17.883322328329086 19.478602208197117 2
      vertex 17.883322328329086 19.478602208197117 0
      vertex 18.012987427413464 19.547909647226334 2
    endloop
  endfacet
  facet normal 0.2902846676741111 -0.9569403386383767 0
    outer loop
      vertex 18.1536822617054 19.590588957071304 0
      vertex 18.1536822617054 19.590588957071304 2
      vertex 18.012987427413464 19.547909647226334 0
    endloop
  endfacet
  facet normal 0.2902846676741111 -0.9569403386383767 0
    outer loop
      vertex 18.012987427413464 19.547909647226334 2
      vertex 18.012987427413464 19.547909647226334 0
      vertex 18.1536822617054 19.590588957071304 2
    endloop
  endfacet
  facet normal 0.09801714412395965 -0.9951847262984812 0
    outer loop
      vertex 18.299999997019768 19.604999996721745 0
      vertex 18.299999997019768 19.604999996721745 2
      vertex 18.1536822617054 19.590588957071304 0
    endloop
  endfacet
  facet normal 0.09801714412395965 -0.9951847262984812 0
    outer loop
      vertex 18.1536822617054 19.590588957071304 2
      vertex 18.1536822617054 19.590588957071304 0
      vertex 18.299999997019768 19.604999996721745 2
    endloop
  endfacet
  facet normal -0.09801713918082348 -0.9951847267853376 0
    outer loop
      vertex 18.446317739784718 19.590588957071304 0
      vertex 18.446317739784718 19.590588957071304 2
      vertex 18.299999997019768 19.604999996721745 0
    endloop
  endfacet
  facet normal -0.09801713918082348 -0.9951847267853376 0
    outer loop
      vertex 18.299999997019768 19.604999996721745 2
      vertex 18.299999997019768 19.604999996721745 0
      vertex 18.446317739784718 19.590588957071304 2
    endloop
  endfacet
  facet normal -0.2902846676741111 -0.9569403386383767 0
    outer loop
      vertex 18.587012574076653 19.547909647226334 0
      vertex 18.587012574076653 19.547909647226334 2
      vertex 18.446317739784718 19.590588957071304 0
    endloop
  endfacet
  facet normal -0.2902846676741111 -0.9569403386383767 0
    outer loop
      vertex 18.446317739784718 19.590588957071304 2
      vertex 18.446317739784718 19.590588957071304 0
      vertex 18.587012574076653 19.547909647226334 2
    endloop
  endfacet
  facet normal -0.4713967348393121 -0.8819212654102606 0
    outer loop
      vertex 18.71667767316103 19.478602208197117 0
      vertex 18.71667767316103 19.478602208197117 2
      vertex 18.587012574076653 19.547909647226334 0
    endloop
  endfacet
  facet normal -0.4713967348393121 -0.8819212654102606 0
    outer loop
      vertex 18.587012574076653 19.547909647226334 2
      vertex 18.587012574076653 19.547909647226334 0
      vertex 18.71667767316103 19.478602208197117 2
    endloop
  endfacet
  facet normal -0.6343932547907689 -0.7730104774684329 0
    outer loop
      vertex 18.830330088734627 19.385330088436604 0
      vertex 18.830330088734627 19.385330088436604 2
      vertex 18.71667767316103 19.478602208197117 0
    endloop
  endfacet
  facet normal -0.6343932547907689 -0.7730104774684329 0
    outer loop
      vertex 18.71667767316103 19.478602208197117 2
      vertex 18.71667767316103 19.478602208197117 0
      vertex 18.830330088734627 19.385330088436604 2
    endloop
  endfacet
  facet normal -0.7730104774684329 -0.6343932547907689 0
    outer loop
      vertex 18.92360220849514 19.271677672863007 0
      vertex 18.92360220849514 19.271677672863007 2
      vertex 18.830330088734627 19.385330088436604 0
    endloop
  endfacet
  facet normal -0.7730104774684329 -0.6343932547907689 0
    outer loop
      vertex 18.830330088734627 19.385330088436604 2
      vertex 18.830330088734627 19.385330088436604 0
      vertex 18.92360220849514 19.271677672863007 2
    endloop
  endfacet
  facet normal -0.8819212654102606 -0.4713967348393121 0
    outer loop
      vertex 18.992909647524357 19.14201257377863 0
      vertex 18.992909647524357 19.14201257377863 2
      vertex 18.92360220849514 19.271677672863007 0
    endloop
  endfacet
  facet normal -0.8819212654102606 -0.4713967348393121 0
    outer loop
      vertex 18.92360220849514 19.271677672863007 2
      vertex 18.92360220849514 19.271677672863007 0
      vertex 18.992909647524357 19.14201257377863 2
    endloop
  endfacet
  facet normal -0.9569403386383767 -0.2902846676741111 0
    outer loop
      vertex 19.035588957369328 19.001317739486694 0
      vertex 19.035588957369328 19.001317739486694 2
      vertex 18.992909647524357 19.14201257377863 0
    endloop
  endfacet
  facet normal -0.9569403386383767 -0.2902846676741111 0
    outer loop
      vertex 18.992909647524357 19.14201257377863 2
      vertex 18.992909647524357 19.14201257377863 0
      vertex 19.035588957369328 19.001317739486694 2
    endloop
  endfacet
  facet normal -0.9951847267853376 -0.09801713918082348 0
    outer loop
      vertex 19.049999997019768 18.854999996721745 0
      vertex 19.049999997019768 18.854999996721745 2
      vertex 19.035588957369328 19.001317739486694 0
    endloop
  endfacet
  facet normal -0.9951847267853376 -0.09801713918082348 0
    outer loop
      vertex 19.035588957369328 19.001317739486694 2
      vertex 19.035588957369328 19.001317739486694 0
      vertex 19.049999997019768 18.854999996721745 2
    endloop
  endfacet
  facet normal -0.9951847262984812 0.09801714412395965 0
    outer loop
      vertex 19.035588957369328 18.708682261407375 0
      vertex 19.035588957369328 18.708682261407375 2
      vertex 19.049999997019768 18.854999996721745 0
    endloop
  endfacet
  facet normal -0.9951847262984812 0.09801714412395965 0
    outer loop
      vertex 19.049999997019768 18.854999996721745 2
      vertex 19.049999997019768 18.854999996721745 0
      vertex 19.035588957369328 18.708682261407375 2
    endloop
  endfacet
  facet normal -0.9569403386383767 0.2902846676741111 0
    outer loop
      vertex 18.992909647524357 18.56798742711544 0
      vertex 18.992909647524357 18.56798742711544 2
      vertex 19.035588957369328 18.708682261407375 0
    endloop
  endfacet
  facet normal -0.9569403386383767 0.2902846676741111 0
    outer loop
      vertex 19.035588957369328 18.708682261407375 2
      vertex 19.035588957369328 18.708682261407375 0
      vertex 18.992909647524357 18.56798742711544 2
    endloop
  endfacet
  facet normal -0.8819212654102606 0.4713967348393121 0
    outer loop
      vertex 18.92360220849514 18.438322328031063 0
      vertex 18.92360220849514 18.438322328031063 2
      vertex 18.992909647524357 18.56798742711544 0
    endloop
  endfacet
  facet normal -0.8819212654102606 0.4713967348393121 0
    outer loop
      vertex 18.992909647524357 18.56798742711544 2
      vertex 18.992909647524357 18.56798742711544 0
      vertex 18.92360220849514 18.438322328031063 2
    endloop
  endfacet
  facet normal -0.7730104774684329 0.6343932547907689 0
    outer loop
      vertex 18.830330088734627 18.324669912457466 0
      vertex 18.830330088734627 18.324669912457466 2
      vertex 18.92360220849514 18.438322328031063 0
    endloop
  endfacet
  facet normal -0.7730104774684329 0.6343932547907689 0
    outer loop
      vertex 18.92360220849514 18.438322328031063 2
      vertex 18.92360220849514 18.438322328031063 0
      vertex 18.830330088734627 18.324669912457466 2
    endloop
  endfacet
  facet normal -0.6343932547907689 0.7730104774684329 0
    outer loop
      vertex 18.71667767316103 18.231397792696953 0
      vertex 18.71667767316103 18.231397792696953 2
      vertex 18.830330088734627 18.324669912457466 0
    endloop
  endfacet
  facet normal -0.6343932547907689 0.7730104774684329 0
    outer loop
      vertex 18.830330088734627 18.324669912457466 2
      vertex 18.830330088734627 18.324669912457466 0
      vertex 18.71667767316103 18.231397792696953 2
    endloop
  endfacet
  facet normal -0.4713967348393121 0.8819212654102606 0
    outer loop
      vertex 18.587012574076653 18.162090353667736 0
      vertex 18.587012574076653 18.162090353667736 2
      vertex 18.71667767316103 18.231397792696953 0
    endloop
  endfacet
  facet normal -0.4713967348393121 0.8819212654102606 0
    outer loop
      vertex 18.71667767316103 18.231397792696953 2
      vertex 18.71667767316103 18.231397792696953 0
      vertex 18.587012574076653 18.162090353667736 2
    endloop
  endfacet
  facet normal -0.29028471407929957 0.9569403245615158 0
    outer loop
      vertex 18.446317739784718 18.119411036372185 0
      vertex 18.446317739784718 18.119411036372185 2
      vertex 18.587012574076653 18.162090353667736 0
    endloop
  endfacet
  facet normal -0.29028471407929957 0.9569403245615158 0
    outer loop
      vertex 18.587012574076653 18.162090353667736 2
      vertex 18.587012574076653 18.162090353667736 0
      vertex 18.446317739784718 18.119411036372185 2
    endloop
  endfacet
  facet normal -0.09801713918082348 0.9951847267853376 0
    outer loop
      vertex 18.299999997019768 18.104999996721745 0
      vertex 18.299999997019768 18.104999996721745 2
      vertex 18.446317739784718 18.119411036372185 0
    endloop
  endfacet
  facet normal -0.09801713918082348 0.9951847267853376 0
    outer loop
      vertex 18.446317739784718 18.119411036372185 2
      vertex 18.446317739784718 18.119411036372185 0
      vertex 18.299999997019768 18.104999996721745 2
    endloop
  endfacet
  facet normal 0.09801714412395965 0.9951847262984812 0
    outer loop
      vertex 18.1536822617054 18.119411036372185 0
      vertex 18.1536822617054 18.119411036372185 2
      vertex 18.299999997019768 18.104999996721745 0
    endloop
  endfacet
  facet normal 0.09801714412395965 0.9951847262984812 0
    outer loop
      vertex 18.299999997019768 18.104999996721745 2
      vertex 18.299999997019768 18.104999996721745 0
      vertex 18.1536822617054 18.119411036372185 2
    endloop
  endfacet
  facet normal 0.29028471407929957 0.9569403245615158 0
    outer loop
      vertex 18.012987427413464 7.162090353667736 0
      vertex 18.012987427413464 7.162090353667736 2
      vertex 18.1536822617054 7.119411036372185 0
    endloop
  endfacet
  facet normal 0.29028471407929957 0.9569403245615158 0
    outer loop
      vertex 18.1536822617054 7.119411036372185 2
      vertex 18.1536822617054 7.119411036372185 0
      vertex 18.012987427413464 7.162090353667736 2
    endloop
  endfacet
  facet normal 0.4713967348393121 0.8819212654102606 0
    outer loop
      vertex 17.883322328329086 7.231397792696953 0
      vertex 17.883322328329086 7.231397792696953 2
      vertex 18.012987427413464 7.162090353667736 0
    endloop
  endfacet
  facet normal 0.4713967348393121 0.8819212654102606 0
    outer loop
      vertex 18.012987427413464 7.162090353667736 2
      vertex 18.012987427413464 7.162090353667736 0
      vertex 17.883322328329086 7.231397792696953 2
    endloop
  endfacet
  facet normal 0.6343932547907689 0.7730104774684329 0
    outer loop
      vertex 17.76966991275549 7.324669912457466 0
      vertex 17.76966991275549 7.324669912457466 2
      vertex 17.883322328329086 7.231397792696953 0
    endloop
  endfacet
  facet normal 0.6343932547907689 0.7730104774684329 0
    outer loop
      vertex 17.883322328329086 7.231397792696953 2
      vertex 17.883322328329086 7.231397792696953 0
      vertex 17.76966991275549 7.324669912457466 2
    endloop
  endfacet
  facet normal 0.7730104774684329 0.6343932547907689 0
    outer loop
      vertex 17.676397792994976 7.438322328031063 0
      vertex 17.676397792994976 7.438322328031063 2
      vertex 17.76966991275549 7.324669912457466 0
    endloop
  endfacet
  facet normal 0.7730104774684329 0.6343932547907689 0
    outer loop
      vertex 17.76966991275549 7.324669912457466 2
      vertex 17.76966991275549 7.324669912457466 0
      vertex 17.676397792994976 7.438322328031063 2
    endloop
  endfacet
  facet normal 0.8819212654102606 0.4713967348393121 0
    outer loop
      vertex 17.60709035396576 7.56798742711544 0
      vertex 17.60709035396576 7.56798742711544 2
      vertex 17.676397792994976 7.438322328031063 0
    endloop
  endfacet
  facet normal 0.8819212654102606 0.4713967348393121 0
    outer loop
      vertex 17.676397792994976 7.438322328031063 2
      vertex 17.676397792994976 7.438322328031063 0
      vertex 17.60709035396576 7.56798742711544 2
    endloop
  endfacet
  facet normal 0.9569403245615158 0.29028471407929957 0
    outer loop
      vertex 17.564411036670208 7.708682261407375 0
      vertex 17.564411036670208 7.708682261407375 2
      vertex 17.60709035396576 7.56798742711544 0
    endloop
  endfacet
  facet normal 0.9569403245615158 0.29028471407929957 0
    outer loop
      vertex 17.60709035396576 7.56798742711544 2
      vertex 17.60709035396576 7.56798742711544 0
      vertex 17.564411036670208 7.708682261407375 2
    endloop
  endfacet
  facet normal 0.9951847262984812 0.09801714412395965 0
    outer loop
      vertex 17.549999997019768 7.8549999967217445 0
      vertex 17.549999997019768 7.8549999967217445 2
      vertex 17.564411036670208 7.708682261407375 0
    endloop
  endfacet
  facet normal 0.9951847262984812 0.09801714412395965 0
    outer loop
      vertex 17.564411036670208 7.708682261407375 2
      vertex 17.564411036670208 7.708682261407375 0
      vertex 17.549999997019768 7.8549999967217445 2
    endloop
  endfacet
  facet normal 0.9951847267853376 -0.09801713918082348 0
    outer loop
      vertex 17.564411036670208 8.001317739486694 0
      vertex 17.564411036670208 8.001317739486694 2
      vertex 17.549999997019768 7.8549999967217445 0
    endloop
  endfacet
  facet normal 0.9951847267853376 -0.09801713918082348 0
    outer loop
      vertex 17.549999997019768 7.8549999967217445 2
      vertex 17.549999997019768 7.8549999967217445 0
      vertex 17.564411036670208 8.001317739486694 2
    endloop
  endfacet
  facet normal 0.9569403245615158 -0.29028471407929957 0
    outer loop
      vertex 17.60709035396576 8.14201257377863 0
      vertex 17.60709035396576 8.14201257377863 2
      vertex 17.564411036670208 8.001317739486694 0
    endloop
  endfacet
  facet normal 0.9569403245615158 -0.29028471407929957 0
    outer loop
      vertex 17.564411036670208 8.001317739486694 2
      vertex 17.564411036670208 8.001317739486694 0
      vertex 17.60709035396576 8.14201257377863 2
    endloop
  endfacet
  facet normal 0.8819212654102606 -0.4713967348393121 0
    outer loop
      vertex 17.676397792994976 8.271677672863007 0
      vertex 17.676397792994976 8.271677672863007 2
      vertex 17.60709035396576 8.14201257377863 0
    endloop
  endfacet
  facet normal 0.8819212654102606 -0.4713967348393121 0
    outer loop
      vertex 17.60709035396576 8.14201257377863 2
      vertex 17.60709035396576 8.14201257377863 0
      vertex 17.676397792994976 8.271677672863007 2
    endloop
  endfacet
  facet normal 0.7730104774684329 -0.6343932547907689 0
    outer loop
      vertex 17.76966991275549 8.385330088436604 0
      vertex 17.76966991275549 8.385330088436604 2
      vertex 17.676397792994976 8.271677672863007 0
    endloop
  endfacet
  facet normal 0.7730104774684329 -0.6343932547907689 0
    outer loop
      vertex 17.676397792994976 8.271677672863007 2
      vertex 17.676397792994976 8.271677672863007 0
      vertex 17.76966991275549 8.385330088436604 2
    endloop
  endfacet
  facet normal 0.6343932547907689 -0.7730104774684329 0
    outer loop
      vertex 17.883322328329086 8.478602208197117 0
      vertex 17.883322328329086 8.478602208197117 2
      vertex 17.76966991275549 8.385330088436604 0
    endloop
  endfacet
  facet normal 0.6343932547907689 -0.7730104774684329 0
    outer loop
      vertex 17.76966991275549 8.385330088436604 2
      vertex 17.76966991275549 8.385330088436604 0
      vertex 17.883322328329086 8.478602208197117 2
    endloop
  endfacet
  facet normal 0.4713967348393121 -0.8819212654102606 0
    outer loop
      vertex 18.012987427413464 8.547909647226334 0
      vertex 18.012987427413464 8.547909647226334 2
      vertex 17.883322328329086 8.478602208197117 0
    endloop
  endfacet
  facet normal 0.4713967348393121 -0.8819212654102606 0
    outer loop
      vertex 17.883322328329086 8.478602208197117 2
      vertex 17.883322328329086 8.478602208197117 0
      vertex 18.012987427413464 8.547909647226334 2
    endloop
  endfacet
  facet normal 0.2902846676741111 -0.9569403386383767 0
    outer loop
      vertex 18.1536822617054 8.590588957071304 0
      vertex 18.1536822617054 8.590588957071304 2
      vertex 18.012987427413464 8.547909647226334 0
    endloop
  endfacet
  facet normal 0.2902846676741111 -0.9569403386383767 0
    outer loop
      vertex 18.012987427413464 8.547909647226334 2
      vertex 18.012987427413464 8.547909647226334 0
      vertex 18.1536822617054 8.590588957071304 2
    endloop
  endfacet
  facet normal 0.09801714412395965 -0.9951847262984812 0
    outer loop
      vertex 18.299999997019768 8.604999996721745 0
      vertex 18.299999997019768 8.604999996721745 2
      vertex 18.1536822617054 8.590588957071304 0
    endloop
  endfacet
  facet normal 0.09801714412395965 -0.9951847262984812 0
    outer loop
      vertex 18.1536822617054 8.590588957071304 2
      vertex 18.1536822617054 8.590588957071304 0
      vertex 18.299999997019768 8.604999996721745 2
    endloop
  endfacet
  facet normal -0.09801713918082348 -0.9951847267853376 0
    outer loop
      vertex 18.446317739784718 8.590588957071304 0
      vertex 18.446317739784718 8.590588957071304 2
      vertex 18.299999997019768 8.604999996721745 0
    endloop
  endfacet
  facet normal -0.09801713918082348 -0.9951847267853376 0
    outer loop
      vertex 18.299999997019768 8.604999996721745 2
      vertex 18.299999997019768 8.604999996721745 0
      vertex 18.446317739784718 8.590588957071304 2
    endloop
  endfacet
  facet normal -0.2902846676741111 -0.9569403386383767 0
    outer loop
      vertex 18.587012574076653 8.547909647226334 0
      vertex 18.587012574076653 8.547909647226334 2
      vertex 18.446317739784718 8.590588957071304 0
    endloop
  endfacet
  facet normal -0.2902846676741111 -0.9569403386383767 0
    outer loop
      vertex 18.446317739784718 8.590588957071304 2
      vertex 18.446317739784718 8.590588957071304 0
      vertex 18.587012574076653 8.547909647226334 2
    endloop
  endfacet
  facet normal -0.4713967348393121 -0.8819212654102606 0
    outer loop
      vertex 18.71667767316103 8.478602208197117 0
      vertex 18.71667767316103 8.478602208197117 2
      vertex 18.587012574076653 8.547909647226334 0
    endloop
  endfacet
  facet normal -0.4713967348393121 -0.8819212654102606 0
    outer loop
      vertex 18.587012574076653 8.547909647226334 2
      vertex 18.587012574076653 8.547909647226334 0
      vertex 18.71667767316103 8.478602208197117 2
    endloop
  endfacet
  facet normal -0.6343932547907689 -0.7730104774684329 0
    outer loop
      vertex 18.830330088734627 8.385330088436604 0
      vertex 18.830330088734627 8.385330088436604 2
      vertex 18.71667767316103 8.478602208197117 0
    endloop
  endfacet
  facet normal -0.6343932547907689 -0.7730104774684329 0
    outer loop
      vertex 18.71667767316103 8.478602208197117 2
      vertex 18.71667767316103 8.478602208197117 0
      vertex 18.830330088734627 8.385330088436604 2
    endloop
  endfacet
  facet normal -0.7730104774684329 -0.6343932547907689 0
    outer loop
      vertex 18.92360220849514 8.271677672863007 0
      vertex 18.92360220849514 8.271677672863007 2
      vertex 18.830330088734627 8.385330088436604 0
    endloop
  endfacet
  facet normal -0.7730104774684329 -0.6343932547907689 0
    outer loop
      vertex 18.830330088734627 8.385330088436604 2
      vertex 18.830330088734627 8.385330088436604 0
      vertex 18.92360220849514 8.271677672863007 2
    endloop
  endfacet
  facet normal -0.8819212654102606 -0.4713967348393121 0
    outer loop
      vertex 18.992909647524357 8.14201257377863 0
      vertex 18.992909647524357 8.14201257377863 2
      vertex 18.92360220849514 8.271677672863007 0
    endloop
  endfacet
  facet normal -0.8819212654102606 -0.4713967348393121 0
    outer loop
      vertex 18.92360220849514 8.271677672863007 2
      vertex 18.92360220849514 8.271677672863007 0
      vertex 18.992909647524357 8.14201257377863 2
    endloop
  endfacet
  facet normal -0.9569403386383767 -0.2902846676741111 0
    outer loop
      vertex 19.035588957369328 8.001317739486694 0
      vertex 19.035588957369328 8.001317739486694 2
      vertex 18.992909647524357 8.14201257377863 0
    endloop
  endfacet
  facet normal -0.9569403386383767 -0.2902846676741111 0
    outer loop
      vertex 18.992909647524357 8.14201257377863 2
      vertex 18.992909647524357 8.14201257377863 0
      vertex 19.035588957369328 8.001317739486694 2
    endloop
  endfacet
  facet normal -0.9951847267853376 -0.09801713918082348 0
    outer loop
      vertex 19.049999997019768 7.8549999967217445 0
      vertex 19.049999997019768 7.8549999967217445 2
      vertex 19.035588957369328 8.001317739486694 0
    endloop
  endfacet
  facet normal -0.9951847267853376 -0.09801713918082348 0
    outer loop
      vertex 19.035588957369328 8.001317739486694 2
      vertex 19.035588957369328 8.001317739486694 0
      vertex 19.049999997019768 7.8549999967217445 2
    endloop
  endfacet
  facet normal -0.9951847262984812 0.09801714412395965 0
    outer loop
      vertex 19.035588957369328 7.708682261407375 0
      vertex 19.035588957369328 7.708682261407375 2
      vertex 19.049999997019768 7.8549999967217445 0
    endloop
  endfacet
  facet normal -0.9951847262984812 0.09801714412395965 0
    outer loop
      vertex 19.049999997019768 7.8549999967217445 2
      vertex 19.049999997019768 7.8549999967217445 0
      vertex 19.035588957369328 7.708682261407375 2
    endloop
  endfacet
  facet normal -0.9569403386383767 0.2902846676741111 0
    outer loop
      vertex 18.992909647524357 7.56798742711544 0
      vertex 18.992909647524357 7.56798742711544 2
      vertex 19.035588957369328 7.708682261407375 0
    endloop
  endfacet
  facet normal -0.9569403386383767 0.2902846676741111 0
    outer loop
      vertex 19.035588957369328 7.708682261407375 2
      vertex 19.035588957369328 7.708682261407375 0
      vertex 18.992909647524357 7.56798742711544 2
    endloop
  endfacet
  facet normal -0.8819212654102606 0.4713967348393121 0
    outer loop
      vertex 18.92360220849514 7.438322328031063 0
      vertex 18.92360220849514 7.438322328031063 2
      vertex 18.992909647524357 7.56798742711544 0
    endloop
  endfacet
  facet normal -0.8819212654102606 0.4713967348393121 0
    outer loop
      vertex 18.992909647524357 7.56798742711544 2
      vertex 18.992909647524357 7.56798742711544 0
      vertex 18.92360220849514 7.438322328031063 2
    endloop
  endfacet
  facet normal -0.7730104774684329 0.6343932547907689 0
    outer loop
      vertex 18.830330088734627 7.324669912457466 0
      vertex 18.830330088734627 7.324669912457466 2
      vertex 18.92360220849514 7.438322328031063 0
    endloop
  endfacet
  facet normal -0.7730104774684329 0.6343932547907689 0
    outer loop
      vertex 18.92360220849514 7.438322328031063 2
      vertex 18.92360220849514 7.438322328031063 0
      vertex 18.830330088734627 7.324669912457466 2
    endloop
  endfacet
  facet normal -0.6343932547907689 0.7730104774684329 0
    outer loop
      vertex 18.71667767316103 7.231397792696953 0
      vertex 18.71667767316103 7.231397792696953 2
      vertex 18.830330088734627 7.324669912457466 0
    endloop
  endfacet
  facet normal -0.6343932547907689 0.7730104774684329 0
    outer loop
      vertex 18.830330088734627 7.324669912457466 2
      vertex 18.830330088734627 7.324669912457466 0
      vertex 18.71667767316103 7.231397792696953 2
    endloop
  endfacet
  facet normal -0.4713967348393121 0.8819212654102606 0
    outer loop
      vertex 18.587012574076653 7.162090353667736 0
      vertex 18.587012574076653 7.162090353667736 2
      vertex 18.71667767316103 7.231397792696953 0
    endloop
  endfacet
  facet normal -0.4713967348393121 0.8819212654102606 0
    outer loop
      vertex 18.71667767316103 7.231397792696953 2
      vertex 18.71667767316103 7.231397792696953 0
      vertex 18.587012574076653 7.162090353667736 2
    endloop
  endfacet
  facet normal -0.29028471407929957 0.9569403245615158 0
    outer loop
      vertex 18.446317739784718 7.119411036372185 0
      vertex 18.446317739784718 7.119411036372185 2
      vertex 18.587012574076653 7.162090353667736 0
    endloop
  endfacet
  facet normal -0.29028471407929957 0.9569403245615158 0
    outer loop
      vertex 18.587012574076653 7.162090353667736 2
      vertex 18.587012574076653 7.162090353667736 0
      vertex 18.446317739784718 7.119411036372185 2
    endloop
  endfacet
  facet normal -0.09801713918082348 0.9951847267853376 0
    outer loop
      vertex 18.299999997019768 7.1049999967217445 0
      vertex 18.299999997019768 7.1049999967217445 2
      vertex 18.446317739784718 7.119411036372185 0
    endloop
  endfacet
  facet normal -0.09801713918082348 0.9951847267853376 0
    outer loop
      vertex 18.446317739784718 7.119411036372185 2
      vertex 18.446317739784718 7.119411036372185 0
      vertex 18.299999997019768 7.1049999967217445 2
    endloop
  endfacet
  facet normal 0.09801714412395965 0.9951847262984812 0
    outer loop
      vertex 18.1536822617054 7.119411036372185 0
      vertex 18.1536822617054 7.119411036372185 2
      vertex 18.299999997019768 7.1049999967217445 0
    endloop
  endfacet
  facet normal 0.09801714412395965 0.9951847262984812 0
    outer loop
      vertex 18.299999997019768 7.1049999967217445 2
      vertex 18.299999997019768 7.1049999967217445 0
      vertex 18.1536822617054 7.119411036372185 2
    endloop
  endfacet
  facet normal 0 0 1
    outer loop
      vertex 15.799999997019768 19.75500000268221 2
      vertex 14.549999997019768 19.75500000268221 2
      vertex 14.549999997019768 17.95499999821186 2
    endloop
  endfacet
  facet normal 0 0 1
    outer loop
      vertex 15.799999997019768 19.75500000268221 2
      vertex 14.549999997019768 17.95499999821186 2
      vertex 15.799999997019768 17.95499999821186 2
    endloop
  endfacet
  facet normal 0 0 1
    outer loop
      vertex 15.799999997019768 8.755000002682209 2
      vertex 14.549999997019768 8.755000002682209 2
      vertex 14.549999997019768 6.954999998211861 2
    endloop
  endfacet
  facet normal 0 0 1
    outer loop
      vertex 15.799999997019768 8.755000002682209 2
      vertex 14.549999997019768 6.954999998211861 2
      vertex 15.799999997019768 6.954999998211861 2
    endloop
  endfacet
  facet normal 0 0 1
    outer loop
      vertex 2 0 2
      vertex 0 0 2
      vertex 0 -4 2
    endloop
  endfacet
  facet normal 0 0 1
    outer loop
      vertex 2 0 2
      vertex 0 -4 2
      vertex 2 -4 2
    endloop
  endfacet
  facet normal 0 0 1
    outer loop
      vertex 2 0 2
      vertex 2 -4 2
      vertex 14.5 -2.7511328160762787 2
    endloop
  endfacet
  facet normal 0 0 1
    outer loop
      vertex 14.5 1.2488671839237213 2
      vertex 2 0 2
      vertex 14.5 -2.7511328160762787 2
    endloop
  endfacet
  facet normal 0 0 1
    outer loop
      vertex 15.799999997019768 1.2488671839237213 2
      vertex 14.5 1.2488671839237213 2
      vertex 14.5 -2.7511328160762787 2
    endloop
  endfacet
  facet normal 0 0 1
    outer loop
      vertex 15.799999997019768 1.2488671839237213 2
      vertex 14.5 -2.7511328160762787 2
      vertex 20.799999997019768 -2.7511328160762787 2
    endloop
  endfacet
  facet normal 0 0 1
    outer loop
      vertex 20.799999997019768 31 2
      vertex 15.799999997019768 31 2
      vertex 15.799999997019768 19.75500000268221 2
    endloop
  endfacet
  facet normal 0 0 1
    outer loop
      vertex 19.035588957369328 19.001317739486694 2
      vertex 19.049999997019768 18.854999996721745 2
      vertex 20.799999997019768 31 2
    endloop
  endfacet
  facet normal 0 0 1
    outer loop
      vertex 18.992909647524357 19.14201257377863 2
      vertex 19.035588957369328 19.001317739486694 2
      vertex 20.799999997019768 31 2
    endloop
  endfacet
  facet normal 0 0 1
    outer loop
      vertex 18.92360220849514 19.271677672863007 2
      vertex 18.992909647524357 19.14201257377863 2
      vertex 20.799999997019768 31 2
    endloop
  endfacet
  facet normal 0 0 1
    outer loop
      vertex 18.830330088734627 19.385330088436604 2
      vertex 18.92360220849514 19.271677672863007 2
      vertex 20.799999997019768 31 2
    endloop
  endfacet
  facet normal 0 0 1
    outer loop
      vertex 18.71667767316103 19.478602208197117 2
      vertex 18.830330088734627 19.385330088436604 2
      vertex 20.799999997019768 31 2
    endloop
  endfacet
  facet normal 0 0 1
    outer loop
      vertex 18.587012574076653 19.547909647226334 2
      vertex 18.71667767316103 19.478602208197117 2
      vertex 20.799999997019768 31 2
    endloop
  endfacet
  facet normal 0 0 1
    outer loop
      vertex 18.446317739784718 19.590588957071304 2
      vertex 18.587012574076653 19.547909647226334 2
      vertex 20.799999997019768 31 2
    endloop
  endfacet
  facet normal 0 0 1
    outer loop
      vertex 18.299999997019768 19.604999996721745 2
      vertex 18.446317739784718 19.590588957071304 2
      vertex 20.799999997019768 31 2
    endloop
  endfacet
  facet normal 0 0 1
    outer loop
      vertex 18.1536822617054 19.590588957071304 2
      vertex 18.299999997019768 19.604999996721745 2
      vertex 20.799999997019768 31 2
    endloop
  endfacet
  facet normal 0 0 1
    outer loop
      vertex 20.799999997019768 -2.7511328160762787 2
      vertex 19.049999997019768 7.8549999967217445 2
      vertex 19.035588957369328 7.708682261407375 2
    endloop
  endfacet
  facet normal 0 0 1
    outer loop
      vertex 20.799999997019768 -2.7511328160762787 2
      vertex 19.035588957369328 7.708682261407375 2
      vertex 18.992909647524357 7.56798742711544 2
    endloop
  endfacet
  facet normal 0 0 1
    outer loop
      vertex 20.799999997019768 -2.7511328160762787 2
      vertex 18.992909647524357 7.56798742711544 2
      vertex 18.92360220849514 7.438322328031063 2
    endloop
  endfacet
  facet normal 0 0 1
    outer loop
      vertex 15.799999997019768 1.2488671839237213 2
      vertex 20.799999997019768 -2.7511328160762787 2
      vertex 18.92360220849514 7.438322328031063 2
    endloop
  endfacet
  facet normal 0 0 1
    outer loop
      vertex 15.799999997019768 1.2488671839237213 2
      vertex 18.92360220849514 7.438322328031063 2
      vertex 18.830330088734627 7.324669912457466 2
    endloop
  endfacet
  facet normal 0 0 1
    outer loop
      vertex 15.799999997019768 1.2488671839237213 2
      vertex 18.830330088734627 7.324669912457466 2
      vertex 18.71667767316103 7.231397792696953 2
    endloop
  endfacet
  facet normal 0 0 1
    outer loop
      vertex 15.799999997019768 1.2488671839237213 2
      vertex 18.71667767316103 7.231397792696953 2
      vertex 18.587012574076653 7.162090353667736 2
    endloop
  endfacet
  facet normal 0 0 1
    outer loop
      vertex 15.799999997019768 1.2488671839237213 2
      vertex 18.587012574076653 7.162090353667736 2
      vertex 18.446317739784718 7.119411036372185 2
    endloop
  endfacet
  facet normal 0 0 1
    outer loop
      vertex 15.799999997019768 1.2488671839237213 2
      vertex 18.446317739784718 7.119411036372185 2
      vertex 18.299999997019768 7.1049999967217445 2
    endloop
  endfacet
  facet normal 0 0 1
    outer loop
      vertex 15.799999997019768 1.2488671839237213 2
      vertex 18.299999997019768 7.1049999967217445 2
      vertex 18.1536822617054 7.119411036372185 2
    endloop
  endfacet
  facet normal 0 0 1
    outer loop
      vertex 15.799999997019768 1.2488671839237213 2
      vertex 18.1536822617054 7.119411036372185 2
      vertex 18.012987427413464 7.162090353667736 2
    endloop
  endfacet
  facet normal 0 0 1
    outer loop
      vertex 15.799999997019768 1.2488671839237213 2
      vertex 18.012987427413464 7.162090353667736 2
      vertex 17.883322328329086 7.231397792696953 2
    endloop
  endfacet
  facet normal 0 0 1
    outer loop
      vertex 15.799999997019768 6.954999998211861 2
      vertex 15.799999997019768 1.2488671839237213 2
      vertex 17.883322328329086 7.231397792696953 2
    endloop
  endfacet
  facet normal 0 0 1
    outer loop
      vertex 15.799999997019768 6.954999998211861 2
      vertex 17.883322328329086 7.231397792696953 2
      vertex 17.76966991275549 7.324669912457466 2
    endloop
  endfacet
  facet normal 0 0 1
    outer loop
      vertex 15.799999997019768 6.954999998211861 2
      vertex 17.76966991275549 7.324669912457466 2
      vertex 17.676397792994976 7.438322328031063 2
    endloop
  endfacet
  facet normal 0 0 1
    outer loop
      vertex 15.799999997019768 6.954999998211861 2
      vertex 17.676397792994976 7.438322328031063 2
      vertex 17.60709035396576 7.56798742711544 2
    endloop
  endfacet
  facet normal 0 0 1
    outer loop
      vertex 15.799999997019768 6.954999998211861 2
      vertex 17.60709035396576 7.56798742711544 2
      vertex 17.564411036670208 7.708682261407375 2
    endloop
  endfacet
  facet normal 0 0 1
    outer loop
      vertex 15.799999997019768 8.755000002682209 2
      vertex 15.799999997019768 6.954999998211861 2
      vertex 17.564411036670208 7.708682261407375 2
    endloop
  endfacet
  facet normal 0 0 1
    outer loop
      vertex 15.799999997019768 8.755000002682209 2
      vertex 17.564411036670208 7.708682261407375 2
      vertex 17.549999997019768 7.8549999967217445 2
    endloop
  endfacet
  facet normal 0 0 1
    outer loop
      vertex 15.799999997019768 8.755000002682209 2
      vertex 17.549999997019768 7.8549999967217445 2
      vertex 17.564411036670208 8.001317739486694 2
    endloop
  endfacet
  facet normal 0 0 1
    outer loop
      vertex 15.799999997019768 8.755000002682209 2
      vertex 17.564411036670208 8.001317739486694 2
      vertex 17.60709035396576 8.14201257377863 2
    endloop
  endfacet
  facet normal 0 0 1
    outer loop
      vertex 15.799999997019768 8.755000002682209 2
      vertex 17.60709035396576 8.14201257377863 2
      vertex 17.676397792994976 8.271677672863007 2
    endloop
  endfacet
  facet normal 0 0 1
    outer loop
      vertex 15.799999997019768 17.95499999821186 2
      vertex 15.799999997019768 8.755000002682209 2
      vertex 17.676397792994976 8.271677672863007 2
    endloop
  endfacet
  facet normal 0 0 1
    outer loop
      vertex 15.799999997019768 17.95499999821186 2
      vertex 17.676397792994976 8.271677672863007 2
      vertex 17.76966991275549 8.385330088436604 2
    endloop
  endfacet
  facet normal 0 0 1
    outer loop
      vertex 15.799999997019768 17.95499999821186 2
      vertex 17.76966991275549 8.385330088436604 2
      vertex 17.883322328329086 8.478602208197117 2
    endloop
  endfacet
  facet normal 0 0 1
    outer loop
      vertex 15.799999997019768 17.95499999821186 2
      vertex 17.883322328329086 8.478602208197117 2
      vertex 18.012987427413464 8.547909647226334 2
    endloop
  endfacet
  facet normal 0 0 1
    outer loop
      vertex 15.799999997019768 17.95499999821186 2
      vertex 18.012987427413464 8.547909647226334 2
      vertex 18.1536822617054 8.590588957071304 2
    endloop
  endfacet
  facet normal 0 0 1
    outer loop
      vertex 15.799999997019768 17.95499999821186 2
      vertex 18.1536822617054 8.590588957071304 2
      vertex 18.299999997019768 8.604999996721745 2
    endloop
  endfacet
  facet normal 0 0 1
    outer loop
      vertex 15.799999997019768 17.95499999821186 2
      vertex 18.299999997019768 8.604999996721745 2
      vertex 18.446317739784718 8.590588957071304 2
    endloop
  endfacet
  facet normal 0 0 1
    outer loop
      vertex 18.012987427413464 19.547909647226334 2
      vertex 18.1536822617054 19.590588957071304 2
      vertex 20.799999997019768 31 2
    endloop
  endfacet
  facet normal 0 0 1
    outer loop
      vertex 18.012987427413464 19.547909647226334 2
      vertex 20.799999997019768 31 2
      vertex 15.799999997019768 19.75500000268221 2
    endloop
  endfacet
  facet normal 0 0 1
    outer loop
      vertex 17.883322328329086 19.478602208197117 2
      vertex 18.012987427413464 19.547909647226334 2
      vertex 15.799999997019768 19.75500000268221 2
    endloop
  endfacet
  facet normal 0 0 1
    outer loop
      vertex 17.76966991275549 19.385330088436604 2
      vertex 17.883322328329086 19.478602208197117 2
      vertex 15.799999997019768 19.75500000268221 2
    endloop
  endfacet
  facet normal 0 0 1
    outer loop
      vertex 17.676397792994976 19.271677672863007 2
      vertex 17.76966991275549 19.385330088436604 2
      vertex 15.799999997019768 19.75500000268221 2
    endloop
  endfacet
  facet normal 0 0 1
    outer loop
      vertex 17.60709035396576 19.14201257377863 2
      vertex 17.676397792994976 19.271677672863007 2
      vertex 15.799999997019768 19.75500000268221 2
    endloop
  endfacet
  facet normal 0 0 1
    outer loop
      vertex 17.564411036670208 19.001317739486694 2
      vertex 17.60709035396576 19.14201257377863 2
      vertex 15.799999997019768 19.75500000268221 2
    endloop
  endfacet
  facet normal 0 0 1
    outer loop
      vertex 17.564411036670208 19.001317739486694 2
      vertex 15.799999997019768 19.75500000268221 2
      vertex 15.799999997019768 17.95499999821186 2
    endloop
  endfacet
  facet normal 0 0 1
    outer loop
      vertex 17.549999997019768 18.854999996721745 2
      vertex 17.564411036670208 19.001317739486694 2
      vertex 15.799999997019768 17.95499999821186 2
    endloop
  endfacet
  facet normal 0 0 1
    outer loop
      vertex 17.564411036670208 18.708682261407375 2
      vertex 17.549999997019768 18.854999996721745 2
      vertex 15.799999997019768 17.95499999821186 2
    endloop
  endfacet
  facet normal 0 0 1
    outer loop
      vertex 17.60709035396576 18.56798742711544 2
      vertex 17.564411036670208 18.708682261407375 2
      vertex 15.799999997019768 17.95499999821186 2
    endloop
  endfacet
  facet normal 0 0 1
    outer loop
      vertex 17.676397792994976 18.438322328031063 2
      vertex 17.60709035396576 18.56798742711544 2
      vertex 15.799999997019768 17.95499999821186 2
    endloop
  endfacet
  facet normal 0 0 1
    outer loop
      vertex 17.676397792994976 18.438322328031063 2
      vertex 15.799999997019768 17.95499999821186 2
      vertex 18.446317739784718 8.590588957071304 2
    endloop
  endfacet
  facet normal 0 0 1
    outer loop
      vertex 17.76966991275549 18.324669912457466 2
      vertex 17.676397792994976 18.438322328031063 2
      vertex 18.446317739784718 8.590588957071304 2
    endloop
  endfacet
  facet normal 0 0 1
    outer loop
      vertex 17.883322328329086 18.231397792696953 2
      vertex 17.76966991275549 18.324669912457466 2
      vertex 18.446317739784718 8.590588957071304 2
    endloop
  endfacet
  facet normal 0 0 1
    outer loop
      vertex 18.012987427413464 18.162090353667736 2
      vertex 17.883322328329086 18.231397792696953 2
      vertex 18.446317739784718 8.590588957071304 2
    endloop
  endfacet
  facet normal 0 0 1
    outer loop
      vertex 18.1536822617054 18.119411036372185 2
      vertex 18.012987427413464 18.162090353667736 2
      vertex 18.446317739784718 8.590588957071304 2
    endloop
  endfacet
  facet normal 0 0 1
    outer loop
      vertex 18.299999997019768 18.104999996721745 2
      vertex 18.1536822617054 18.119411036372185 2
      vertex 18.446317739784718 8.590588957071304 2
    endloop
  endfacet
  facet normal 0 0 1
    outer loop
      vertex 18.446317739784718 18.119411036372185 2
      vertex 18.299999997019768 18.104999996721745 2
      vertex 18.446317739784718 8.590588957071304 2
    endloop
  endfacet
  facet normal 0 0 1
    outer loop
      vertex 18.446317739784718 18.119411036372185 2
      vertex 18.446317739784718 8.590588957071304 2
      vertex 18.587012574076653 8.547909647226334 2
    endloop
  endfacet
  facet normal 0 0 1
    outer loop
      vertex 18.587012574076653 18.162090353667736 2
      vertex 18.446317739784718 18.119411036372185 2
      vertex 18.587012574076653 8.547909647226334 2
    endloop
  endfacet
  facet normal 0 0 1
    outer loop
      vertex 18.71667767316103 18.231397792696953 2
      vertex 18.587012574076653 18.162090353667736 2
      vertex 18.587012574076653 8.547909647226334 2
    endloop
  endfacet
  facet normal 0 0 1
    outer loop
      vertex 18.71667767316103 18.231397792696953 2
      vertex 18.587012574076653 8.547909647226334 2
      vertex 18.71667767316103 8.478602208197117 2
    endloop
  endfacet
  facet normal 0 0 1
    outer loop
      vertex 18.830330088734627 18.324669912457466 2
      vertex 18.71667767316103 18.231397792696953 2
      vertex 18.71667767316103 8.478602208197117 2
    endloop
  endfacet
  facet normal 0 0 1
    outer loop
      vertex 18.830330088734627 18.324669912457466 2
      vertex 18.71667767316103 8.478602208197117 2
      vertex 18.830330088734627 8.385330088436604 2
    endloop
  endfacet
  facet normal 0 0 1
    outer loop
      vertex 18.92360220849514 18.438322328031063 2
      vertex 18.830330088734627 18.324669912457466 2
      vertex 18.830330088734627 8.385330088436604 2
    endloop
  endfacet
  facet normal 0 0 1
    outer loop
      vertex 18.92360220849514 18.438322328031063 2
      vertex 18.830330088734627 8.385330088436604 2
      vertex 18.92360220849514 8.271677672863007 2
    endloop
  endfacet
  facet normal 0 0 1
    outer loop
      vertex 18.992909647524357 18.56798742711544 2
      vertex 18.92360220849514 18.438322328031063 2
      vertex 18.92360220849514 8.271677672863007 2
    endloop
  endfacet
  facet normal 0 0 1
    outer loop
      vertex 18.992909647524357 18.56798742711544 2
      vertex 18.92360220849514 8.271677672863007 2
      vertex 18.992909647524357 8.14201257377863 2
    endloop
  endfacet
  facet normal 0 0 1
    outer loop
      vertex 19.035588957369328 18.708682261407375 2
      vertex 18.992909647524357 18.56798742711544 2
      vertex 18.992909647524357 8.14201257377863 2
    endloop
  endfacet
  facet normal 0 0 1
    outer loop
      vertex 19.035588957369328 18.708682261407375 2
      vertex 18.992909647524357 8.14201257377863 2
      vertex 19.035588957369328 8.001317739486694 2
    endloop
  endfacet
  facet normal 0 0 1
    outer loop
      vertex 19.049999997019768 7.8549999967217445 2
      vertex 20.799999997019768 -2.7511328160762787 2
      vertex 20.799999997019768 31 2
    endloop
  endfacet
  facet normal 0 0 1
    outer loop
      vertex 19.049999997019768 7.8549999967217445 2
      vertex 20.799999997019768 31 2
      vertex 19.049999997019768 18.854999996721745 2
    endloop
  endfacet
  facet normal 0 0 1
    outer loop
      vertex 19.035588957369328 8.001317739486694 2
      vertex 19.049999997019768 7.8549999967217445 2
      vertex 19.049999997019768 18.854999996721745 2
    endloop
  endfacet
  facet normal 0 0 1
    outer loop
      vertex 19.035588957369328 18.708682261407375 2
      vertex 19.035588957369328 8.001317739486694 2
      vertex 19.049999997019768 18.854999996721745 2
    endloop
  endfacet
  facet normal 0 0 -1
    outer loop
      vertex 14.549999997019768 17.95499999821186 0
      vertex 14.549999997019768 19.75500000268221 0
      vertex 15.799999997019768 19.75500000268221 0
    endloop
  endfacet
  facet normal 0 0 -1
    outer loop
      vertex 15.799999997019768 17.95499999821186 0
      vertex 14.549999997019768 17.95499999821186 0
      vertex 15.799999997019768 19.75500000268221 0
    endloop
  endfacet
  facet normal 0 0 -1
    outer loop
      vertex 14.549999997019768 6.954999998211861 0
      vertex 14.549999997019768 8.755000002682209 0
      vertex 15.799999997019768 8.755000002682209 0
    endloop
  endfacet
  facet normal 0 0 -1
    outer loop
      vertex 15.799999997019768 6.954999998211861 0
      vertex 14.549999997019768 6.954999998211861 0
      vertex 15.799999997019768 8.755000002682209 0
    endloop
  endfacet
  facet normal 0 0 -1
    outer loop
      vertex 0 -4 0
      vertex 0 0 0
      vertex 2 0 0
    endloop
  endfacet
  facet normal 0 0 -1
    outer loop
      vertex 2 -4 0
      vertex 0 -4 0
      vertex 2 0 0
    endloop
  endfacet
  facet normal 0 0 -1
    outer loop
      vertex 14.5 -2.7511328160762787 0
      vertex 2 -4 0
      vertex 2 0 0
    endloop
  endfacet
  facet normal 0 0 -1
    outer loop
      vertex 14.5 -2.7511328160762787 0
      vertex 2 0 0
      vertex 14.5 1.2488671839237213 0
    endloop
  endfacet
  facet normal 0 0 -1
    outer loop
      vertex 14.5 -2.7511328160762787 0
      vertex 14.5 1.2488671839237213 0
      vertex 15.799999997019768 1.2488671839237213 0
    endloop
  endfacet
  facet normal 0 0 -1
    outer loop
      vertex 20.799999997019768 -2.7511328160762787 0
      vertex 14.5 -2.7511328160762787 0
      vertex 15.799999997019768 1.2488671839237213 0
    endloop
  endfacet
  facet normal 0 0 -1
    outer loop
      vertex 15.799999997019768 19.75500000268221 0
      vertex 15.799999997019768 31 0
      vertex 20.799999997019768 31 0
    endloop
  endfacet
  facet normal 0 0 -1
    outer loop
      vertex 20.799999997019768 31 0
      vertex 19.049999997019768 18.854999996721745 0
      vertex 19.035588957369328 19.001317739486694 0
    endloop
  endfacet
  facet normal 0 0 -1
    outer loop
      vertex 20.799999997019768 31 0
      vertex 19.035588957369328 19.001317739486694 0
      vertex 18.992909647524357 19.14201257377863 0
    endloop
  endfacet
  facet normal 0 0 -1
    outer loop
      vertex 20.799999997019768 31 0
      vertex 18.992909647524357 19.14201257377863 0
      vertex 18.92360220849514 19.271677672863007 0
    endloop
  endfacet
  facet normal 0 0 -1
    outer loop
      vertex 20.799999997019768 31 0
      vertex 18.92360220849514 19.271677672863007 0
      vertex 18.830330088734627 19.385330088436604 0
    endloop
  endfacet
  facet normal 0 0 -1
    outer loop
      vertex 20.799999997019768 31 0
      vertex 18.830330088734627 19.385330088436604 0
      vertex 18.71667767316103 19.478602208197117 0
    endloop
  endfacet
  facet normal 0 0 -1
    outer loop
      vertex 20.799999997019768 31 0
      vertex 18.71667767316103 19.478602208197117 0
      vertex 18.587012574076653 19.547909647226334 0
    endloop
  endfacet
  facet normal 0 0 -1
    outer loop
      vertex 20.799999997019768 31 0
      vertex 18.587012574076653 19.547909647226334 0
      vertex 18.446317739784718 19.590588957071304 0
    endloop
  endfacet
  facet normal 0 0 -1
    outer loop
      vertex 20.799999997019768 31 0
      vertex 18.446317739784718 19.590588957071304 0
      vertex 18.299999997019768 19.604999996721745 0
    endloop
  endfacet
  facet normal 0 0 -1
    outer loop
      vertex 20.799999997019768 31 0
      vertex 18.299999997019768 19.604999996721745 0
      vertex 18.1536822617054 19.590588957071304 0
    endloop
  endfacet
  facet normal 0 0 -1
    outer loop
      vertex 19.035588957369328 7.708682261407375 0
      vertex 19.049999997019768 7.8549999967217445 0
      vertex 20.799999997019768 -2.7511328160762787 0
    endloop
  endfacet
  facet normal 0 0 -1
    outer loop
      vertex 18.992909647524357 7.56798742711544 0
      vertex 19.035588957369328 7.708682261407375 0
      vertex 20.799999997019768 -2.7511328160762787 0
    endloop
  endfacet
  facet normal 0 0 -1
    outer loop
      vertex 18.92360220849514 7.438322328031063 0
      vertex 18.992909647524357 7.56798742711544 0
      vertex 20.799999997019768 -2.7511328160762787 0
    endloop
  endfacet
  facet normal 0 0 -1
    outer loop
      vertex 18.92360220849514 7.438322328031063 0
      vertex 20.799999997019768 -2.7511328160762787 0
      vertex 15.799999997019768 1.2488671839237213 0
    endloop
  endfacet
  facet normal 0 0 -1
    outer loop
      vertex 18.830330088734627 7.324669912457466 0
      vertex 18.92360220849514 7.438322328031063 0
      vertex 15.799999997019768 1.2488671839237213 0
    endloop
  endfacet
  facet normal 0 0 -1
    outer loop
      vertex 18.71667767316103 7.231397792696953 0
      vertex 18.830330088734627 7.324669912457466 0
      vertex 15.799999997019768 1.2488671839237213 0
    endloop
  endfacet
  facet normal 0 0 -1
    outer loop
      vertex 18.587012574076653 7.162090353667736 0
      vertex 18.71667767316103 7.231397792696953 0
      vertex 15.799999997019768 1.2488671839237213 0
    endloop
  endfacet
  facet normal 0 0 -1
    outer loop
      vertex 18.446317739784718 7.119411036372185 0
      vertex 18.587012574076653 7.162090353667736 0
      vertex 15.799999997019768 1.2488671839237213 0
    endloop
  endfacet
  facet normal 0 0 -1
    outer loop
      vertex 18.299999997019768 7.1049999967217445 0
      vertex 18.446317739784718 7.119411036372185 0
      vertex 15.799999997019768 1.2488671839237213 0
    endloop
  endfacet
  facet normal 0 0 -1
    outer loop
      vertex 18.1536822617054 7.119411036372185 0
      vertex 18.299999997019768 7.1049999967217445 0
      vertex 15.799999997019768 1.2488671839237213 0
    endloop
  endfacet
  facet normal 0 0 -1
    outer loop
      vertex 18.012987427413464 7.162090353667736 0
      vertex 18.1536822617054 7.119411036372185 0
      vertex 15.799999997019768 1.2488671839237213 0
    endloop
  endfacet
  facet normal 0 0 -1
    outer loop
      vertex 17.883322328329086 7.231397792696953 0
      vertex 18.012987427413464 7.162090353667736 0
      vertex 15.799999997019768 1.2488671839237213 0
    endloop
  endfacet
  facet normal 0 0 -1
    outer loop
      vertex 17.883322328329086 7.231397792696953 0
      vertex 15.799999997019768 1.2488671839237213 0
      vertex 15.799999997019768 6.954999998211861 0
    endloop
  endfacet
  facet normal 0 0 -1
    outer loop
      vertex 17.76966991275549 7.324669912457466 0
      vertex 17.883322328329086 7.231397792696953 0
      vertex 15.799999997019768 6.954999998211861 0
    endloop
  endfacet
  facet normal 0 0 -1
    outer loop
      vertex 17.676397792994976 7.438322328031063 0
      vertex 17.76966991275549 7.324669912457466 0
      vertex 15.799999997019768 6.954999998211861 0
    endloop
  endfacet
  facet normal 0 0 -1
    outer loop
      vertex 17.60709035396576 7.56798742711544 0
      vertex 17.676397792994976 7.438322328031063 0
      vertex 15.799999997019768 6.954999998211861 0
    endloop
  endfacet
  facet normal 0 0 -1
    outer loop
      vertex 17.564411036670208 7.708682261407375 0
      vertex 17.60709035396576 7.56798742711544 0
      vertex 15.799999997019768 6.954999998211861 0
    endloop
  endfacet
  facet normal 0 0 -1
    outer loop
      vertex 17.564411036670208 7.708682261407375 0
      vertex 15.799999997019768 6.954999998211861 0
      vertex 15.799999997019768 8.755000002682209 0
    endloop
  endfacet
  facet normal 0 0 -1
    outer loop
      vertex 17.549999997019768 7.8549999967217445 0
      vertex 17.564411036670208 7.708682261407375 0
      vertex 15.799999997019768 8.755000002682209 0
    endloop
  endfacet
  facet normal 0 0 -1
    outer loop
      vertex 17.564411036670208 8.001317739486694 0
      vertex 17.549999997019768 7.8549999967217445 0
      vertex 15.799999997019768 8.755000002682209 0
    endloop
  endfacet
  facet normal 0 0 -1
    outer loop
      vertex 17.60709035396576 8.14201257377863 0
      vertex 17.564411036670208 8.001317739486694 0
      vertex 15.799999997019768 8.755000002682209 0
    endloop
  endfacet
  facet normal 0 0 -1
    outer loop
      vertex 17.676397792994976 8.271677672863007 0
      vertex 17.60709035396576 8.14201257377863 0
      vertex 15.799999997019768 8.755000002682209 0
    endloop
  endfacet
  facet normal 0 0 -1
    outer loop
      vertex 17.676397792994976 8.271677672863007 0
      vertex 15.799999997019768 8.755000002682209 0
      vertex 15.799999997019768 17.95499999821186 0
    endloop
  endfacet
  facet normal 0 0 -1
    outer loop
      vertex 17.76966991275549 8.385330088436604 0
      vertex 17.676397792994976 8.271677672863007 0
      vertex 15.799999997019768 17.95499999821186 0
    endloop
  endfacet
  facet normal 0 0 -1
    outer loop
      vertex 17.883322328329086 8.478602208197117 0
      vertex 17.76966991275549 8.385330088436604 0
      vertex 15.799999997019768 17.95499999821186 0
    endloop
  endfacet
  facet normal 0 0 -1
    outer loop
      vertex 18.012987427413464 8.547909647226334 0
      vertex 17.883322328329086 8.478602208197117 0
      vertex 15.799999997019768 17.95499999821186 0
    endloop
  endfacet
  facet normal 0 0 -1
    outer loop
      vertex 18.1536822617054 8.590588957071304 0
      vertex 18.012987427413464 8.547909647226334 0
      vertex 15.799999997019768 17.95499999821186 0
    endloop
  endfacet
  facet normal 0 0 -1
    outer loop
      vertex 18.299999997019768 8.604999996721745 0
      vertex 18.1536822617054 8.590588957071304 0
      vertex 15.799999997019768 17.95499999821186 0
    endloop
  endfacet
  facet normal 0 0 -1
    outer loop
      vertex 18.446317739784718 8.590588957071304 0
      vertex 18.299999997019768 8.604999996721745 0
      vertex 15.799999997019768 17.95499999821186 0
    endloop
  endfacet
  facet normal 0 0 -1
    outer loop
      vertex 20.799999997019768 31 0
      vertex 18.1536822617054 19.590588957071304 0
      vertex 18.012987427413464 19.547909647226334 0
    endloop
  endfacet
  facet normal 0 0 -1
    outer loop
      vertex 15.799999997019768 19.75500000268221 0
      vertex 20.799999997019768 31 0
      vertex 18.012987427413464 19.547909647226334 0
    endloop
  endfacet
  facet normal 0 0 -1
    outer loop
      vertex 15.799999997019768 19.75500000268221 0
      vertex 18.012987427413464 19.547909647226334 0
      vertex 17.883322328329086 19.478602208197117 0
    endloop
  endfacet
  facet normal 0 0 -1
    outer loop
      vertex 15.799999997019768 19.75500000268221 0
      vertex 17.883322328329086 19.478602208197117 0
      vertex 17.76966991275549 19.385330088436604 0
    endloop
  endfacet
  facet normal 0 0 -1
    outer loop
      vertex 15.799999997019768 19.75500000268221 0
      vertex 17.76966991275549 19.385330088436604 0
      vertex 17.676397792994976 19.271677672863007 0
    endloop
  endfacet
  facet normal 0 0 -1
    outer loop
      vertex 15.799999997019768 19.75500000268221 0
      vertex 17.676397792994976 19.271677672863007 0
      vertex 17.60709035396576 19.14201257377863 0
    endloop
  endfacet
  facet normal 0 0 -1
    outer loop
      vertex 15.799999997019768 19.75500000268221 0
      vertex 17.60709035396576 19.14201257377863 0
      vertex 17.564411036670208 19.001317739486694 0
    endloop
  endfacet
  facet normal 0 0 -1
    outer loop
      vertex 15.799999997019768 17.95499999821186 0
      vertex 15.799999997019768 19.75500000268221 0
      vertex 17.564411036670208 19.001317739486694 0
    endloop
  endfacet
  facet normal 0 0 -1
    outer loop
      vertex 15.799999997019768 17.95499999821186 0
      vertex 17.564411036670208 19.001317739486694 0
      vertex 17.549999997019768 18.854999996721745 0
    endloop
  endfacet
  facet normal 0 0 -1
    outer loop
      vertex 15.799999997019768 17.95499999821186 0
      vertex 17.549999997019768 18.854999996721745 0
      vertex 17.564411036670208 18.708682261407375 0
    endloop
  endfacet
  facet normal 0 0 -1
    outer loop
      vertex 15.799999997019768 17.95499999821186 0
      vertex 17.564411036670208 18.708682261407375 0
      vertex 17.60709035396576 18.56798742711544 0
    endloop
  endfacet
  facet normal 0 0 -1
    outer loop
      vertex 15.799999997019768 17.95499999821186 0
      vertex 17.60709035396576 18.56798742711544 0
      vertex 17.676397792994976 18.438322328031063 0
    endloop
  endfacet
  facet normal 0 0 -1
    outer loop
      vertex 18.446317739784718 8.590588957071304 0
      vertex 15.799999997019768 17.95499999821186 0
      vertex 17.676397792994976 18.438322328031063 0
    endloop
  endfacet
  facet normal 0 0 -1
    outer loop
      vertex 18.446317739784718 8.590588957071304 0
      vertex 17.676397792994976 18.438322328031063 0
      vertex 17.76966991275549 18.324669912457466 0
    endloop
  endfacet
  facet normal 0 0 -1
    outer loop
      vertex 18.446317739784718 8.590588957071304 0
      vertex 17.76966991275549 18.324669912457466 0
      vertex 17.883322328329086 18.231397792696953 0
    endloop
  endfacet
  facet normal 0 0 -1
    outer loop
      vertex 18.446317739784718 8.590588957071304 0
      vertex 17.883322328329086 18.231397792696953 0
      vertex 18.012987427413464 18.162090353667736 0
    endloop
  endfacet
  facet normal 0 0 -1
    outer loop
      vertex 18.446317739784718 8.590588957071304 0
      vertex 18.012987427413464 18.162090353667736 0
      vertex 18.1536822617054 18.119411036372185 0
    endloop
  endfacet
  facet normal 0 0 -1
    outer loop
      vertex 18.446317739784718 8.590588957071304 0
      vertex 18.1536822617054 18.119411036372185 0
      vertex 18.299999997019768 18.104999996721745 0
    endloop
  endfacet
  facet normal 0 0 -1
    outer loop
      vertex 18.446317739784718 8.590588957071304 0
      vertex 18.299999997019768 18.104999996721745 0
      vertex 18.446317739784718 18.119411036372185 0
    endloop
  endfacet
  facet normal 0 0 -1
    outer loop
      vertex 18.587012574076653 8.547909647226334 0
      vertex 18.446317739784718 8.590588957071304 0
      vertex 18.446317739784718 18.119411036372185 0
    endloop
  endfacet
  facet normal 0 0 -1
    outer loop
      vertex 18.587012574076653 8.547909647226334 0
      vertex 18.446317739784718 18.119411036372185 0
      vertex 18.587012574076653 18.162090353667736 0
    endloop
  endfacet
  facet normal 0 0 -1
    outer loop
      vertex 18.587012574076653 8.547909647226334 0
      vertex 18.587012574076653 18.162090353667736 0
      vertex 18.71667767316103 18.231397792696953 0
    endloop
  endfacet
  facet normal 0 0 -1
    outer loop
      vertex 18.71667767316103 8.478602208197117 0
      vertex 18.587012574076653 8.547909647226334 0
      vertex 18.71667767316103 18.231397792696953 0
    endloop
  endfacet
  facet normal 0 0 -1
    outer loop
      vertex 18.71667767316103 8.478602208197117 0
      vertex 18.71667767316103 18.231397792696953 0
      vertex 18.830330088734627 18.324669912457466 0
    endloop
  endfacet
  facet normal 0 0 -1
    outer loop
      vertex 18.830330088734627 8.385330088436604 0
      vertex 18.71667767316103 8.478602208197117 0
      vertex 18.830330088734627 18.324669912457466 0
    endloop
  endfacet
  facet normal 0 0 -1
    outer loop
      vertex 18.830330088734627 8.385330088436604 0
      vertex 18.830330088734627 18.324669912457466 0
      vertex 18.92360220849514 18.438322328031063 0
    endloop
  endfacet
  facet normal 0 0 -1
    outer loop
      vertex 18.92360220849514 8.271677672863007 0
      vertex 18.830330088734627 8.385330088436604 0
      vertex 18.92360220849514 18.438322328031063 0
    endloop
  endfacet
  facet normal 0 0 -1
    outer loop
      vertex 18.92360220849514 8.271677672863007 0
      vertex 18.92360220849514 18.438322328031063 0
      vertex 18.992909647524357 18.56798742711544 0
    endloop
  endfacet
  facet normal 0 0 -1
    outer loop
      vertex 18.992909647524357 8.14201257377863 0
      vertex 18.92360220849514 8.271677672863007 0
      vertex 18.992909647524357 18.56798742711544 0
    endloop
  endfacet
  facet normal 0 0 -1
    outer loop
      vertex 18.992909647524357 8.14201257377863 0
      vertex 18.992909647524357 18.56798742711544 0
      vertex 19.035588957369328 18.708682261407375 0
    endloop
  endfacet
  facet normal 0 0 -1
    outer loop
      vertex 19.035588957369328 8.001317739486694 0
      vertex 18.992909647524357 8.14201257377863 0
      vertex 19.035588957369328 18.708682261407375 0
    endloop
  endfacet
  facet normal 0 0 -1
    outer loop
      vertex 20.799999997019768 31 0
      vertex 20.799999997019768 -2.7511328160762787 0
      vertex 19.049999997019768 7.8549999967217445 0
    endloop
  endfacet
  facet normal 0 0 -1
    outer loop
      vertex 19.049999997019768 18.854999996721745 0
      vertex 20.799999997019768 31 0
      vertex 19.049999997019768 7.8549999967217445 0
    endloop
  endfacet
  facet normal 0 0 -1
    outer loop
      vertex 19.049999997019768 18.854999996721745 0
      vertex 19.049999997019768 7.8549999967217445 0
      vertex 19.035588957369328 8.001317739486694 0
    endloop
  endfacet
  facet normal 0 0 -1
    outer loop
      vertex 19.049999997019768 18.854999996721745 0
      vertex 19.035588957369328 8.001317739486694 0
      vertex 19.035588957369328 18.708682261407375 0
    endloop
  endfacet
endsolid OpenSCAD_Model
