solid OpenSCAD_Model
  facet normal 0.9994645892550709 -0.03271902848790418 0
    outer loop
      vertex -22.24892946332693 -0.4672984331846237 0
      vertex -22.25 -0.5 2
      vertex -22.25 -0.5 0
    endloop
  endfacet
  facet normal 0.9994645892550709 -0.03271902848790418 0
    outer loop
      vertex -22.24892946332693 -0.4672984331846237 0
      vertex -22.24892946332693 -0.4672984331846237 2
      vertex -22.25 -0.5 2
    endloop
  endfacet
  facet normal 0.9951847117632358 -0.09801729170266596 0
    outer loop
      vertex -22.24572242796421 -0.4347369074821472 0
      vertex -22.24892946332693 -0.4672984331846237 2
      vertex -22.24892946332693 -0.4672984331846237 0
    endloop
  endfacet
  facet normal 0.9951847117632358 -0.09801729170266596 0
    outer loop
      vertex -22.24572242796421 -0.4347369074821472 0
      vertex -22.24572242796421 -0.4347369074821472 2
      vertex -22.24892946332693 -0.4672984331846237 2
    endloop
  endfacet
  facet normal 0.9866433492040043 -0.16289536970554158 0
    outer loop
      vertex -22.24039264023304 -0.40245483815670013 0
      vertex -22.24572242796421 -0.4347369074821472 2
      vertex -22.24572242796421 -0.4347369074821472 0
    endloop
  endfacet
  facet normal 0.9866433492040043 -0.16289536970554158 0
    outer loop
      vertex -22.24039264023304 -0.40245483815670013 0
      vertex -22.24039264023304 -0.40245483815670013 2
      vertex -22.24572242796421 -0.4347369074821472 2
    endloop
  endfacet
  facet normal 0.9738769810992817 -0.22707625522046462 0
    outer loop
      vertex -22.232962913811207 -0.370590478181839 0
      vertex -22.24039264023304 -0.40245483815670013 2
      vertex -22.24039264023304 -0.40245483815670013 0
    endloop
  endfacet
  facet normal 0.9738769810992817 -0.22707625522046462 0
    outer loop
      vertex -22.232962913811207 -0.370590478181839 0
      vertex -22.232962913811207 -0.370590478181839 2
      vertex -22.24039264023304 -0.40245483815670013 2
    endloop
  endfacet
  facet normal 0.956940307456462 -0.29028477046709156 0
    outer loop
      vertex -22.22346506267786 -0.33928027004003525 0
      vertex -22.232962913811207 -0.370590478181839 2
      vertex -22.232962913811207 -0.370590478181839 0
    endloop
  endfacet
  facet normal 0.956940307456462 -0.29028477046709156 0
    outer loop
      vertex -22.22346506267786 -0.33928027004003525 0
      vertex -22.22346506267786 -0.33928027004003525 2
      vertex -22.232962913811207 -0.370590478181839 2
    endloop
  endfacet
  facet normal 0.9359059535491316 -0.3522499767371048 0
    outer loop
      vertex -22.21193976700306 -0.30865828692913055 0
      vertex -22.22346506267786 -0.33928027004003525 2
      vertex -22.22346506267786 -0.33928027004003525 0
    endloop
  endfacet
  facet normal 0.9359059535491316 -0.3522499767371048 0
    outer loop
      vertex -22.21193976700306 -0.30865828692913055 0
      vertex -22.21193976700306 -0.30865828692913055 2
      vertex -22.22346506267786 -0.33928027004003525 2
    endloop
  endfacet
  facet normal 0.9108638635413518 -0.41270694456783913 0
    outer loop
      vertex -22.198436371982098 -0.27885565161705017 0
      vertex -22.21193976700306 -0.30865828692913055 2
      vertex -22.21193976700306 -0.30865828692913055 0
    endloop
  endfacet
  facet normal 0.9108638635413518 -0.41270694456783913 0
    outer loop
      vertex -22.198436371982098 -0.27885565161705017 0
      vertex -22.198436371982098 -0.27885565161705017 2
      vertex -22.21193976700306 -0.30865828692913055 2
    endloop
  endfacet
  facet normal 0.8819212225871742 -0.4713968149556634 0
    outer loop
      vertex -22.183012701570988 -0.25 0
      vertex -22.198436371982098 -0.27885565161705017 2
      vertex -22.198436371982098 -0.27885565161705017 0
    endloop
  endfacet
  facet normal 0.8819212225871742 -0.4713968149556634 0
    outer loop
      vertex -22.183012701570988 -0.25 0
      vertex -22.183012701570988 -0.25 2
      vertex -22.198436371982098 -0.27885565161705017 2
    endloop
  endfacet
  facet normal 0.8492021590903005 -0.5280678867308368 0
    outer loop
      vertex -22.16573480516672 -0.22221488505601883 0
      vertex -22.183012701570988 -0.25 2
      vertex -22.183012701570988 -0.25 0
    endloop
  endfacet
  facet normal 0.8492021590903005 -0.5280678867308368 0
    outer loop
      vertex -22.16573480516672 -0.22221488505601883 0
      vertex -22.16573480516672 -0.22221488505601883 2
      vertex -22.183012701570988 -0.25 2
    endloop
  endfacet
  facet normal 0.8128466740910193 -0.5824777115213666 0
    outer loop
      vertex -22.146676667034626 -0.19561928510665894 0
      vertex -22.16573480516672 -0.22221488505601883 2
      vertex -22.16573480516672 -0.22221488505601883 0
    endloop
  endfacet
  facet normal 0.8128466740910193 -0.5824777115213666 0
    outer loop
      vertex -22.146676667034626 -0.19561928510665894 0
      vertex -22.146676667034626 -0.19561928510665894 2
      vertex -22.16573480516672 -0.22221488505601883 2
    endloop
  endfacet
  facet normal 0.7730104851608635 -0.6343932454175141 0
    outer loop
      vertex -22.12591990083456 -0.1703270897269249 0
      vertex -22.146676667034626 -0.19561928510665894 2
      vertex -22.146676667034626 -0.19561928510665894 0
    endloop
  endfacet
  facet normal 0.7730104851608635 -0.6343932454175141 0
    outer loop
      vertex -22.12591990083456 -0.1703270897269249 0
      vertex -22.12591990083456 -0.1703270897269249 2
      vertex -22.146676667034626 -0.19561928510665894 2
    endloop
  endfacet
  facet normal 0.7298641194406067 -0.6835922521161192 0
    outer loop
      vertex -22.103553391993046 -0.1464466080069542 0
      vertex -22.12591990083456 -0.1703270897269249 2
      vertex -22.12591990083456 -0.1703270897269249 0
    endloop
  endfacet
  facet normal 0.7298641194406067 -0.6835922521161192 0
    outer loop
      vertex -22.103553391993046 -0.1464466080069542 0
      vertex -22.103553391993046 -0.1464466080069542 2
      vertex -22.12591990083456 -0.1703270897269249 2
    endloop
  endfacet
  facet normal 0.6835922521161192 -0.7298641194406067 0
    outer loop
      vertex -22.079672910273075 -0.1240800991654396 0
      vertex -22.103553391993046 -0.1464466080069542 2
      vertex -22.103553391993046 -0.1464466080069542 0
    endloop
  endfacet
  facet normal 0.6835922521161192 -0.7298641194406067 0
    outer loop
      vertex -22.079672910273075 -0.1240800991654396 0
      vertex -22.079672910273075 -0.1240800991654396 2
      vertex -22.103553391993046 -0.1464466080069542 2
    endloop
  endfacet
  facet normal 0.6343932454175141 -0.7730104851608635 0
    outer loop
      vertex -22.05438071489334 -0.10332333296537399 0
      vertex -22.079672910273075 -0.1240800991654396 2
      vertex -22.079672910273075 -0.1240800991654396 0
    endloop
  endfacet
  facet normal 0.6343932454175141 -0.7730104851608635 0
    outer loop
      vertex -22.05438071489334 -0.10332333296537399 0
      vertex -22.05438071489334 -0.10332333296537399 2
      vertex -22.079672910273075 -0.1240800991654396 2
    endloop
  endfacet
  facet normal 0.5824777115213666 -0.8128466740910193 0
    outer loop
      vertex -22.02778511494398 -0.08426519483327866 0
      vertex -22.05438071489334 -0.10332333296537399 2
      vertex -22.05438071489334 -0.10332333296537399 0
    endloop
  endfacet
  facet normal 0.5824777115213666 -0.8128466740910193 0
    outer loop
      vertex -22.02778511494398 -0.08426519483327866 0
      vertex -22.02778511494398 -0.08426519483327866 2
      vertex -22.05438071489334 -0.10332333296537399 2
    endloop
  endfacet
  facet normal 0.5280678867308368 -0.8492021590903005 0
    outer loop
      vertex -22 -0.0669872984290123 0
      vertex -22.02778511494398 -0.08426519483327866 2
      vertex -22.02778511494398 -0.08426519483327866 0
    endloop
  endfacet
  facet normal 0.5280678867308368 -0.8492021590903005 0
    outer loop
      vertex -22 -0.0669872984290123 0
      vertex -22 -0.0669872984290123 2
      vertex -22.02778511494398 -0.08426519483327866 2
    endloop
  endfacet
  facet normal 0.4713968149556634 -0.8819212225871742 0
    outer loop
      vertex -21.97114434838295 -0.051563628017902374 0
      vertex -22 -0.0669872984290123 2
      vertex -22 -0.0669872984290123 0
    endloop
  endfacet
  facet normal 0.4713968149556634 -0.8819212225871742 0
    outer loop
      vertex -21.97114434838295 -0.051563628017902374 0
      vertex -21.97114434838295 -0.051563628017902374 2
      vertex -22 -0.0669872984290123 2
    endloop
  endfacet
  facet normal 0.41270694456783913 -0.9108638635413518 0
    outer loop
      vertex -21.94134171307087 -0.03806023299694061 0
      vertex -21.97114434838295 -0.051563628017902374 2
      vertex -21.97114434838295 -0.051563628017902374 0
    endloop
  endfacet
  facet normal 0.41270694456783913 -0.9108638635413518 0
    outer loop
      vertex -21.94134171307087 -0.03806023299694061 0
      vertex -21.94134171307087 -0.03806023299694061 2
      vertex -21.97114434838295 -0.051563628017902374 2
    endloop
  endfacet
  facet normal 0.3522499767371048 -0.9359059535491316 0
    outer loop
      vertex -21.910719729959965 -0.02653493732213974 0
      vertex -21.94134171307087 -0.03806023299694061 2
      vertex -21.94134171307087 -0.03806023299694061 0
    endloop
  endfacet
  facet normal 0.3522499767371048 -0.9359059535491316 0
    outer loop
      vertex -21.910719729959965 -0.02653493732213974 0
      vertex -21.910719729959965 -0.02653493732213974 2
      vertex -21.94134171307087 -0.03806023299694061 2
    endloop
  endfacet
  facet normal 0.29028477046709156 -0.956940307456462 0
    outer loop
      vertex -21.87940952181816 -0.017037086188793182 0
      vertex -21.910719729959965 -0.02653493732213974 2
      vertex -21.910719729959965 -0.02653493732213974 0
    endloop
  endfacet
  facet normal 0.29028477046709156 -0.956940307456462 0
    outer loop
      vertex -21.87940952181816 -0.017037086188793182 0
      vertex -21.87940952181816 -0.017037086188793182 2
      vertex -21.910719729959965 -0.02653493732213974 2
    endloop
  endfacet
  facet normal 0.22707625522046462 -0.9738769810992817 0
    outer loop
      vertex -21.8475451618433 -0.009607359766960144 0
      vertex -21.87940952181816 -0.017037086188793182 2
      vertex -21.87940952181816 -0.017037086188793182 0
    endloop
  endfacet
  facet normal 0.22707625522046462 -0.9738769810992817 0
    outer loop
      vertex -21.8475451618433 -0.009607359766960144 0
      vertex -21.8475451618433 -0.009607359766960144 2
      vertex -21.87940952181816 -0.017037086188793182 2
    endloop
  endfacet
  facet normal 0.16289536970554158 -0.9866433492040043 0
    outer loop
      vertex -21.815263092517853 -0.00427757203578949 0
      vertex -21.8475451618433 -0.009607359766960144 2
      vertex -21.8475451618433 -0.009607359766960144 0
    endloop
  endfacet
  facet normal 0.16289536970554158 -0.9866433492040043 0
    outer loop
      vertex -21.815263092517853 -0.00427757203578949 0
      vertex -21.815263092517853 -0.00427757203578949 2
      vertex -21.8475451618433 -0.009607359766960144 2
    endloop
  endfacet
  facet normal 0.09801729170266596 -0.9951847117632358 0
    outer loop
      vertex -21.782701566815376 -0.0010705366730690002 0
      vertex -21.815263092517853 -0.00427757203578949 2
      vertex -21.815263092517853 -0.00427757203578949 0
    endloop
  endfacet
  facet normal 0.09801729170266596 -0.9951847117632358 0
    outer loop
      vertex -21.782701566815376 -0.0010705366730690002 0
      vertex -21.782701566815376 -0.0010705366730690002 2
      vertex -21.815263092517853 -0.00427757203578949 2
    endloop
  endfacet
  facet normal 0.03271902848790418 -0.9994645892550709 0
    outer loop
      vertex -21.75 0 0
      vertex -21.782701566815376 -0.0010705366730690002 2
      vertex -21.782701566815376 -0.0010705366730690002 0
    endloop
  endfacet
  facet normal 0.03271902848790418 -0.9994645892550709 0
    outer loop
      vertex -21.75 0 0
      vertex -21.75 0 2
      vertex -21.782701566815376 -0.0010705366730690002 2
    endloop
  endfacet
  facet normal 0 -1 0
    outer loop
      vertex -14.25 0 0
      vertex -21.75 0 2
      vertex -21.75 0 0
    endloop
  endfacet
  facet normal 0 -1 0
    outer loop
      vertex -14.25 0 0
      vertex -14.25 0 2
      vertex -21.75 0 2
    endloop
  endfacet
  facet normal 1 0 0
    outer loop
      vertex -14.25 2.4500000029802322 0
      vertex -14.25 0 2
      vertex -14.25 0 0
    endloop
  endfacet
  facet normal 1 0 0
    outer loop
      vertex -14.25 2.4500000029802322 0
      vertex -14.25 2.4500000029802322 2
      vertex -14.25 0 2
    endloop
  endfacet
  facet normal 0 -1 0
    outer loop
      vertex -11.75 2.4500000029802322 0
      vertex -14.25 2.4500000029802322 2
      vertex -14.25 2.4500000029802322 0
    endloop
  endfacet
  facet normal 0 -1 0
    outer loop
      vertex -11.75 2.4500000029802322 0
      vertex -11.75 2.4500000029802322 2
      vertex -14.25 2.4500000029802322 2
    endloop
  endfacet
  facet normal -1 0 0
    outer loop
      vertex -11.75 -8 0
      vertex -11.75 2.4500000029802322 2
      vertex -11.75 2.4500000029802322 0
    endloop
  endfacet
  facet normal -1 0 0
    outer loop
      vertex -11.75 -8 0
      vertex -11.75 -8 2
      vertex -11.75 2.4500000029802322 2
    endloop
  endfacet
  facet normal 0 -1 0
    outer loop
      vertex -9.25 -8 0
      vertex -11.75 -8 2
      vertex -11.75 -8 0
    endloop
  endfacet
  facet normal 0 -1 0
    outer loop
      vertex -9.25 -8 0
      vertex -9.25 -8 2
      vertex -11.75 -8 2
    endloop
  endfacet
  facet normal 1 0 0
    outer loop
      vertex -9.25 -1 0
      vertex -9.25 -8 2
      vertex -9.25 -8 0
    endloop
  endfacet
  facet normal 1 0 0
    outer loop
      vertex -9.25 -1 0
      vertex -9.25 -1 2
      vertex -9.25 -8 2
    endloop
  endfacet
  facet normal 0.9994645891331833 -0.03271903221119392 0
    outer loop
      vertex -9.247858926653862 -0.934596873819828 0
      vertex -9.25 -1 2
      vertex -9.25 -1 0
    endloop
  endfacet
  facet normal 0.9994645891331833 -0.03271903221119392 0
    outer loop
      vertex -9.247858926653862 -0.934596873819828 0
      vertex -9.247858926653862 -0.934596873819828 2
      vertex -9.25 -1 2
    endloop
  endfacet
  facet normal 0.9951847250571568 -0.09801715672733673 0
    outer loop
      vertex -9.241444863379002 -0.8694738075137138 0
      vertex -9.247858926653862 -0.934596873819828 2
      vertex -9.247858926653862 -0.934596873819828 0
    endloop
  endfacet
  facet normal 0.9951847250571568 -0.09801715672733673 0
    outer loop
      vertex -9.241444863379002 -0.8694738075137138 0
      vertex -9.241444863379002 -0.8694738075137138 2
      vertex -9.247858926653862 -0.934596873819828 2
    endloop
  endfacet
  facet normal 0.986643327883793 -0.16289549884018895 0
    outer loop
      vertex -9.23078528046608 -0.8049096763134003 0
      vertex -9.241444863379002 -0.8694738075137138 2
      vertex -9.241444863379002 -0.8694738075137138 0
    endloop
  endfacet
  facet normal 0.986643327883793 -0.16289549884018895 0
    outer loop
      vertex -9.23078528046608 -0.8049096763134003 0
      vertex -9.23078528046608 -0.8049096763134003 2
      vertex -9.241444863379002 -0.8694738075137138 2
    endloop
  endfacet
  facet normal 0.9738769810992817 -0.22707625522046462 0
    outer loop
      vertex -9.215925827622414 -0.741180956363678 0
      vertex -9.23078528046608 -0.8049096763134003 2
      vertex -9.23078528046608 -0.8049096763134003 0
    endloop
  endfacet
  facet normal 0.9738769810992817 -0.22707625522046462 0
    outer loop
      vertex -9.215925827622414 -0.741180956363678 0
      vertex -9.215925827622414 -0.741180956363678 2
      vertex -9.23078528046608 -0.8049096763134003 2
    endloop
  endfacet
  facet normal 0.9569403486783582 -0.2902846345767239 0
    outer loop
      vertex -9.196930132806301 -0.6785605326294899 0
      vertex -9.215925827622414 -0.741180956363678 2
      vertex -9.215925827622414 -0.741180956363678 0
    endloop
  endfacet
  facet normal 0.9569403486783582 -0.2902846345767239 0
    outer loop
      vertex -9.196930132806301 -0.6785605326294899 0
      vertex -9.196930132806301 -0.6785605326294899 2
      vertex -9.215925827622414 -0.741180956363678 2
    endloop
  endfacet
  facet normal 0.9359059160136282 -0.35225007646655215 0
    outer loop
      vertex -9.173879534006119 -0.6173165664076805 0
      vertex -9.196930132806301 -0.6785605326294899 2
      vertex -9.196930132806301 -0.6785605326294899 0
    endloop
  endfacet
  facet normal 0.9359059160136282 -0.35225007646655215 0
    outer loop
      vertex -9.173879534006119 -0.6173165664076805 0
      vertex -9.173879534006119 -0.6173165664076805 2
      vertex -9.196930132806301 -0.6785605326294899 2
    endloop
  endfacet
  facet normal 0.9108638247555646 -0.4127070301699062 0
    outer loop
      vertex -9.146872743964195 -0.5577113106846809 0
      vertex -9.173879534006119 -0.6173165664076805 2
      vertex -9.173879534006119 -0.6173165664076805 0
    endloop
  endfacet
  facet normal 0.9108638247555646 -0.4127070301699062 0
    outer loop
      vertex -9.146872743964195 -0.5577113106846809 0
      vertex -9.146872743964195 -0.5577113106846809 2
      vertex -9.173879534006119 -0.6173165664076805 2
    endloop
  endfacet
  facet normal 0.8819212478878575 -0.47139676762142113 0
    outer loop
      vertex -9.116025403141975 -0.5 0
      vertex -9.146872743964195 -0.5577113106846809 2
      vertex -9.146872743964195 -0.5577113106846809 0
    endloop
  endfacet
  facet normal 0.8819212478878575 -0.47139676762142113 0
    outer loop
      vertex -9.116025403141975 -0.5 0
      vertex -9.116025403141975 -0.5 2
      vertex -9.146872743964195 -0.5577113106846809 2
    endloop
  endfacet
  facet normal 0.8492021590903005 -0.5280678867308368 0
    outer loop
      vertex -9.081469610333443 -0.44442977011203766 0
      vertex -9.116025403141975 -0.5 2
      vertex -9.116025403141975 -0.5 0
    endloop
  endfacet
  facet normal 0.8492021590903005 -0.5280678867308368 0
    outer loop
      vertex -9.081469610333443 -0.44442977011203766 0
      vertex -9.081469610333443 -0.44442977011203766 2
      vertex -9.116025403141975 -0.5 2
    endloop
  endfacet
  facet normal 0.8128467279982359 -0.5824776362939286 0
    outer loop
      vertex -9.043353341519833 -0.39123857021331787 0
      vertex -9.081469610333443 -0.44442977011203766 2
      vertex -9.081469610333443 -0.44442977011203766 0
    endloop
  endfacet
  facet normal 0.8128467279982359 -0.5824776362939286 0
    outer loop
      vertex -9.043353341519833 -0.39123857021331787 0
      vertex -9.043353341519833 -0.39123857021331787 2
      vertex -9.081469610333443 -0.44442977011203766 2
    endloop
  endfacet
  facet normal 0.7730104393386424 -0.6343933012520536 0
    outer loop
      vertex -9.001839809119701 -0.3406541869044304 0
      vertex -9.043353341519833 -0.39123857021331787 2
      vertex -9.043353341519833 -0.39123857021331787 0
    endloop
  endfacet
  facet normal 0.7730104393386424 -0.6343933012520536 0
    outer loop
      vertex -9.001839809119701 -0.3406541869044304 0
      vertex -9.001839809119701 -0.3406541869044304 2
      vertex -9.043353341519833 -0.39123857021331787 2
    endloop
  endfacet
  facet normal 0.7298641158391919 -0.683592255961311 0
    outer loop
      vertex -8.957106783986092 -0.2928932160139084 0
      vertex -9.001839809119701 -0.3406541869044304 2
      vertex -9.001839809119701 -0.3406541869044304 0
    endloop
  endfacet
  facet normal 0.7298641158391919 -0.683592255961311 0
    outer loop
      vertex -8.957106783986092 -0.2928932160139084 0
      vertex -8.957106783986092 -0.2928932160139084 2
      vertex -9.001839809119701 -0.3406541869044304 2
    endloop
  endfacet
  facet normal 0.683592255961311 -0.7298641158391919 0
    outer loop
      vertex -8.90934581309557 -0.24816019088029861 0
      vertex -8.957106783986092 -0.2928932160139084 2
      vertex -8.957106783986092 -0.2928932160139084 0
    endloop
  endfacet
  facet normal 0.683592255961311 -0.7298641158391919 0
    outer loop
      vertex -8.90934581309557 -0.24816019088029861 0
      vertex -8.90934581309557 -0.24816019088029861 2
      vertex -8.957106783986092 -0.2928932160139084 2
    endloop
  endfacet
  facet normal 0.6343933012520536 -0.7730104393386424 0
    outer loop
      vertex -8.858761429786682 -0.2066466584801674 0
      vertex -8.90934581309557 -0.24816019088029861 2
      vertex -8.90934581309557 -0.24816019088029861 0
    endloop
  endfacet
  facet normal 0.6343933012520536 -0.7730104393386424 0
    outer loop
      vertex -8.858761429786682 -0.2066466584801674 0
      vertex -8.858761429786682 -0.2066466584801674 2
      vertex -8.90934581309557 -0.24816019088029861 2
    endloop
  endfacet
  facet normal 0.5824776362939286 -0.8128467279982359 0
    outer loop
      vertex -8.805570229887962 -0.1685303896665573 0
      vertex -8.858761429786682 -0.2066466584801674 2
      vertex -8.858761429786682 -0.2066466584801674 0
    endloop
  endfacet
  facet normal 0.5824776362939286 -0.8128467279982359 0
    outer loop
      vertex -8.805570229887962 -0.1685303896665573 0
      vertex -8.805570229887962 -0.1685303896665573 2
      vertex -8.858761429786682 -0.2066466584801674 2
    endloop
  endfacet
  facet normal 0.5280678867308368 -0.8492021590903005 0
    outer loop
      vertex -8.75 -0.1339745968580246 0
      vertex -8.805570229887962 -0.1685303896665573 2
      vertex -8.805570229887962 -0.1685303896665573 0
    endloop
  endfacet
  facet normal 0.5280678867308368 -0.8492021590903005 0
    outer loop
      vertex -8.75 -0.1339745968580246 0
      vertex -8.75 -0.1339745968580246 2
      vertex -8.805570229887962 -0.1685303896665573 2
    endloop
  endfacet
  facet normal 0.47139676762142113 -0.8819212478878575 0
    outer loop
      vertex -8.692288689315319 -0.10312725603580475 0
      vertex -8.75 -0.1339745968580246 2
      vertex -8.75 -0.1339745968580246 0
    endloop
  endfacet
  facet normal 0.47139676762142113 -0.8819212478878575 0
    outer loop
      vertex -8.692288689315319 -0.10312725603580475 0
      vertex -8.692288689315319 -0.10312725603580475 2
      vertex -8.75 -0.1339745968580246 2
    endloop
  endfacet
  facet normal 0.4127070301699062 -0.9108638247555646 0
    outer loop
      vertex -8.63268343359232 -0.07612046599388123 0
      vertex -8.692288689315319 -0.10312725603580475 2
      vertex -8.692288689315319 -0.10312725603580475 0
    endloop
  endfacet
  facet normal 0.4127070301699062 -0.9108638247555646 0
    outer loop
      vertex -8.63268343359232 -0.07612046599388123 0
      vertex -8.63268343359232 -0.07612046599388123 2
      vertex -8.692288689315319 -0.10312725603580475 2
    endloop
  endfacet
  facet normal 0.35225007646655215 -0.9359059160136282 0
    outer loop
      vertex -8.57143946737051 -0.05306986719369888 0
      vertex -8.63268343359232 -0.07612046599388123 2
      vertex -8.63268343359232 -0.07612046599388123 0
    endloop
  endfacet
  facet normal 0.35225007646655215 -0.9359059160136282 0
    outer loop
      vertex -8.57143946737051 -0.05306986719369888 0
      vertex -8.57143946737051 -0.05306986719369888 2
      vertex -8.63268343359232 -0.07612046599388123 2
    endloop
  endfacet
  facet normal 0.2902846345767239 -0.9569403486783582 0
    outer loop
      vertex -8.508819043636322 -0.034074172377586365 0
      vertex -8.57143946737051 -0.05306986719369888 2
      vertex -8.57143946737051 -0.05306986719369888 0
    endloop
  endfacet
  facet normal 0.2902846345767239 -0.9569403486783582 0
    outer loop
      vertex -8.508819043636322 -0.034074172377586365 0
      vertex -8.508819043636322 -0.034074172377586365 2
      vertex -8.57143946737051 -0.05306986719369888 2
    endloop
  endfacet
  facet normal 0.22707625522046462 -0.9738769810992817 0
    outer loop
      vertex -8.4450903236866 -0.019214719533920288 0
      vertex -8.508819043636322 -0.034074172377586365 2
      vertex -8.508819043636322 -0.034074172377586365 0
    endloop
  endfacet
  facet normal 0.22707625522046462 -0.9738769810992817 0
    outer loop
      vertex -8.4450903236866 -0.019214719533920288 0
      vertex -8.4450903236866 -0.019214719533920288 2
      vertex -8.508819043636322 -0.034074172377586365 2
    endloop
  endfacet
  facet normal 0.16289549884018895 -0.986643327883793 0
    outer loop
      vertex -8.380526192486286 -0.008555136620998383 0
      vertex -8.4450903236866 -0.019214719533920288 2
      vertex -8.4450903236866 -0.019214719533920288 0
    endloop
  endfacet
  facet normal 0.16289549884018895 -0.986643327883793 0
    outer loop
      vertex -8.380526192486286 -0.008555136620998383 0
      vertex -8.380526192486286 -0.008555136620998383 2
      vertex -8.4450903236866 -0.019214719533920288 2
    endloop
  endfacet
  facet normal 0.09801715672733673 -0.9951847250571568 0
    outer loop
      vertex -8.315403126180172 -0.0021410733461380005 0
      vertex -8.380526192486286 -0.008555136620998383 2
      vertex -8.380526192486286 -0.008555136620998383 0
    endloop
  endfacet
  facet normal 0.09801715672733673 -0.9951847250571568 0
    outer loop
      vertex -8.315403126180172 -0.0021410733461380005 0
      vertex -8.315403126180172 -0.0021410733461380005 2
      vertex -8.380526192486286 -0.008555136620998383 2
    endloop
  endfacet
  facet normal 0.03271903221119392 -0.9994645891331833 0
    outer loop
      vertex -8.25 0 0
      vertex -8.315403126180172 -0.0021410733461380005 2
      vertex -8.315403126180172 -0.0021410733461380005 0
    endloop
  endfacet
  facet normal 0.03271903221119392 -0.9994645891331833 0
    outer loop
      vertex -8.25 0 0
      vertex -8.25 0 2
      vertex -8.315403126180172 -0.0021410733461380005 2
    endloop
  endfacet
  facet normal 0 -1 0
    outer loop
      vertex -1.25 0 0
      vertex -8.25 0 2
      vertex -8.25 0 0
    endloop
  endfacet
  facet normal 0 -1 0
    outer loop
      vertex -1.25 0 0
      vertex -1.25 0 2
      vertex -8.25 0 2
    endloop
  endfacet
  facet normal 1 0 0
    outer loop
      vertex -1.25 2.4500000029802322 0
      vertex -1.25 0 2
      vertex -1.25 0 0
    endloop
  endfacet
  facet normal 1 0 0
    outer loop
      vertex -1.25 2.4500000029802322 0
      vertex -1.25 2.4500000029802322 2
      vertex -1.25 0 2
    endloop
  endfacet
  facet normal 0 -1 0
    outer loop
      vertex 1.25 2.4500000029802322 0
      vertex -1.25 2.4500000029802322 2
      vertex -1.25 2.4500000029802322 0
    endloop
  endfacet
  facet normal 0 -1 0
    outer loop
      vertex 1.25 2.4500000029802322 0
      vertex 1.25 2.4500000029802322 2
      vertex -1.25 2.4500000029802322 2
    endloop
  endfacet
  facet normal -1 0 0
    outer loop
      vertex 1.25 -8 0
      vertex 1.25 2.4500000029802322 2
      vertex 1.25 2.4500000029802322 0
    endloop
  endfacet
  facet normal -1 0 0
    outer loop
      vertex 1.25 -8 0
      vertex 1.25 -8 2
      vertex 1.25 2.4500000029802322 2
    endloop
  endfacet
  facet normal 0 -1 0
    outer loop
      vertex 3.75 -8 0
      vertex 1.25 -8 2
      vertex 1.25 -8 0
    endloop
  endfacet
  facet normal 0 -1 0
    outer loop
      vertex 3.75 -8 0
      vertex 3.75 -8 2
      vertex 1.25 -8 2
    endloop
  endfacet
  facet normal 1 0 0
    outer loop
      vertex 3.75 -1.5 0
      vertex 3.75 -8 2
      vertex 3.75 -8 0
    endloop
  endfacet
  facet normal 1 0 0
    outer loop
      vertex 3.75 -1.5 0
      vertex 3.75 -1.5 2
      vertex 3.75 -8 2
    endloop
  endfacet
  facet normal 0.9994645866916163 -0.032719106793377285 0
    outer loop
      vertex 3.7532116174697876 -1.4018953070044518 0
      vertex 3.75 -1.5 2
      vertex 3.75 -1.5 0
    endloop
  endfacet
  facet normal 0.9994645866916163 -0.032719106793377285 0
    outer loop
      vertex 3.7532116174697876 -1.4018953070044518 0
      vertex 3.7532116174697876 -1.4018953070044518 2
      vertex 3.75 -1.5 2
    endloop
  endfacet
  facet normal 0.9951847280299747 -0.09801712654380969 0
    outer loop
      vertex 3.762832708656788 -1.304210714995861 0
      vertex 3.7532116174697876 -1.4018953070044518 2
      vertex 3.7532116174697876 -1.4018953070044518 0
    endloop
  endfacet
  facet normal 0.9951847280299747 -0.09801712654380969 0
    outer loop
      vertex 3.762832708656788 -1.304210714995861 0
      vertex 3.762832708656788 -1.304210714995861 2
      vertex 3.7532116174697876 -1.4018953070044518 2
    endloop
  endfacet
  facet normal 0.9866433349905325 -0.16289545579530412 0
    outer loop
      vertex 3.7788220793008804 -1.2073645144701004 0
      vertex 3.762832708656788 -1.304210714995861 2
      vertex 3.762832708656788 -1.304210714995861 0
    endloop
  endfacet
  facet normal 0.9866433349905325 -0.16289545579530412 0
    outer loop
      vertex 3.7788220793008804 -1.2073645144701004 0
      vertex 3.7788220793008804 -1.2073645144701004 2
      vertex 3.762832708656788 -1.304210714995861 2
    endloop
  endfacet
  facet normal 0.9738769810992816 -0.2270762552204646 0
    outer loop
      vertex 3.8011112585663795 -1.111771434545517 0
      vertex 3.7788220793008804 -1.2073645144701004 2
      vertex 3.7788220793008804 -1.2073645144701004 0
    endloop
  endfacet
  facet normal 0.9738769810992816 -0.2270762552204646 0
    outer loop
      vertex 3.8011112585663795 -1.111771434545517 0
      vertex 3.8011112585663795 -1.111771434545517 2
      vertex 3.7788220793008804 -1.2073645144701004 2
    endloop
  endfacet
  facet normal 0.9569403349377289 -0.2902846798735115 0
    outer loop
      vertex 3.8296048045158386 -1.0178408026695251 0
      vertex 3.8011112585663795 -1.111771434545517 2
      vertex 3.8011112585663795 -1.111771434545517 0
    endloop
  endfacet
  facet normal 0.9569403349377289 -0.2902846798735115 0
    outer loop
      vertex 3.8296048045158386 -1.0178408026695251 0
      vertex 3.8296048045158386 -1.0178408026695251 2
      vertex 3.8011112585663795 -1.111771434545517 2
    endloop
  endfacet
  facet normal 0.9359059285254634 -0.3522500432234043 0
    outer loop
      vertex 3.864180698990822 -0.9259748533368111 0
      vertex 3.8296048045158386 -1.0178408026695251 2
      vertex 3.8296048045158386 -1.0178408026695251 0
    endloop
  endfacet
  facet normal 0.9359059285254634 -0.3522500432234043 0
    outer loop
      vertex 3.864180698990822 -0.9259748533368111 0
      vertex 3.864180698990822 -0.9259748533368111 2
      vertex 3.8296048045158386 -1.0178408026695251 2
    endloop
  endfacet
  facet normal 0.9108638376841631 -0.41270700163588026 0
    outer loop
      vertex 3.904690884053707 -0.8365669623017311 0
      vertex 3.864180698990822 -0.9259748533368111 2
      vertex 3.864180698990822 -0.9259748533368111 0
    endloop
  endfacet
  facet normal 0.9108638376841631 -0.41270700163588026 0
    outer loop
      vertex 3.904690884053707 -0.8365669623017311 0
      vertex 3.904690884053707 -0.8365669623017311 2
      vertex 3.864180698990822 -0.9259748533368111 2
    endloop
  endfacet
  facet normal 0.8819212394542973 -0.471396783399501 0
    outer loop
      vertex 3.950961895287037 -0.75 0
      vertex 3.904690884053707 -0.8365669623017311 2
      vertex 3.904690884053707 -0.8365669623017311 0
    endloop
  endfacet
  facet normal 0.8819212394542973 -0.471396783399501 0
    outer loop
      vertex 3.950961895287037 -0.75 0
      vertex 3.950961895287037 -0.75 2
      vertex 3.904690884053707 -0.8365669623017311 2
    endloop
  endfacet
  facet normal 0.8492021802567117 -0.5280678526924806 0
    outer loop
      vertex 4.002795584499836 -0.6666446477174759 0
      vertex 3.950961895287037 -0.75 2
      vertex 3.950961895287037 -0.75 0
    endloop
  endfacet
  facet normal 0.8492021802567117 -0.5280678526924806 0
    outer loop
      vertex 4.002795584499836 -0.6666446477174759 0
      vertex 4.002795584499836 -0.6666446477174759 2
      vertex 3.950961895287037 -0.75 2
    endloop
  endfacet
  facet normal 0.8128466842762535 -0.5824776973078889 0
    outer loop
      vertex 4.059969991445541 -0.5868578553199768 0
      vertex 4.002795584499836 -0.6666446477174759 2
      vertex 4.002795584499836 -0.6666446477174759 0
    endloop
  endfacet
  facet normal 0.8128466842762535 -0.5824776973078889 0
    outer loop
      vertex 4.059969991445541 -0.5868578553199768 0
      vertex 4.059969991445541 -0.5868578553199768 2
      vertex 4.002795584499836 -0.6666446477174759 2
    endloop
  endfacet
  facet normal 0.7730104546127176 -0.6343932826405397 0
    outer loop
      vertex 4.122240290045738 -0.5109812766313553 0
      vertex 4.059969991445541 -0.5868578553199768 2
      vertex 4.059969991445541 -0.5868578553199768 0
    endloop
  endfacet
  facet normal 0.7730104546127176 -0.6343932826405397 0
    outer loop
      vertex 4.122240290045738 -0.5109812766313553 0
      vertex 4.122240290045738 -0.5109812766313553 2
      vertex 4.059969991445541 -0.5868578553199768 2
    endloop
  endfacet
  facet normal 0.7298640436985812 -0.683592332985059 0
    outer loop
      vertex 4.189339831471443 -0.4393398314714432 0
      vertex 4.122240290045738 -0.5109812766313553 2
      vertex 4.122240290045738 -0.5109812766313553 0
    endloop
  endfacet
  facet normal 0.7298640436985812 -0.683592332985059 0
    outer loop
      vertex 4.189339831471443 -0.4393398314714432 0
      vertex 4.189339831471443 -0.4393398314714432 2
      vertex 4.122240290045738 -0.5109812766313553 2
    endloop
  endfacet
  facet normal 0.683592332985059 -0.7298640436985812 0
    outer loop
      vertex 4.260981276631355 -0.3722402900457382 0
      vertex 4.189339831471443 -0.4393398314714432 2
      vertex 4.189339831471443 -0.4393398314714432 0
    endloop
  endfacet
  facet normal 0.683592332985059 -0.7298640436985812 0
    outer loop
      vertex 4.260981276631355 -0.3722402900457382 0
      vertex 4.260981276631355 -0.3722402900457382 2
      vertex 4.189339831471443 -0.4393398314714432 2
    endloop
  endfacet
  facet normal 0.6343932826405397 -0.7730104546127176 0
    outer loop
      vertex 4.336857855319977 -0.3099699914455414 0
      vertex 4.260981276631355 -0.3722402900457382 2
      vertex 4.260981276631355 -0.3722402900457382 0
    endloop
  endfacet
  facet normal 0.6343932826405397 -0.7730104546127176 0
    outer loop
      vertex 4.336857855319977 -0.3099699914455414 0
      vertex 4.336857855319977 -0.3099699914455414 2
      vertex 4.260981276631355 -0.3722402900457382 2
    endloop
  endfacet
  facet normal 0.5824776973078889 -0.8128466842762535 0
    outer loop
      vertex 4.416644647717476 -0.25279558449983597 0
      vertex 4.336857855319977 -0.3099699914455414 2
      vertex 4.336857855319977 -0.3099699914455414 0
    endloop
  endfacet
  facet normal 0.5824776973078889 -0.8128466842762535 0
    outer loop
      vertex 4.416644647717476 -0.25279558449983597 0
      vertex 4.416644647717476 -0.25279558449983597 2
      vertex 4.336857855319977 -0.3099699914455414 2
    endloop
  endfacet
  facet normal 0.5280678526924806 -0.8492021802567117 0
    outer loop
      vertex 4.5 -0.2009618952870369 0
      vertex 4.416644647717476 -0.25279558449983597 2
      vertex 4.416644647717476 -0.25279558449983597 0
    endloop
  endfacet
  facet normal 0.5280678526924806 -0.8492021802567117 0
    outer loop
      vertex 4.5 -0.2009618952870369 0
      vertex 4.5 -0.2009618952870369 2
      vertex 4.416644647717476 -0.25279558449983597 2
    endloop
  endfacet
  facet normal 0.471396783399501 -0.8819212394542973 0
    outer loop
      vertex 4.586566962301731 -0.15469088405370712 0
      vertex 4.5 -0.2009618952870369 2
      vertex 4.5 -0.2009618952870369 0
    endloop
  endfacet
  facet normal 0.471396783399501 -0.8819212394542973 0
    outer loop
      vertex 4.586566962301731 -0.15469088405370712 0
      vertex 4.586566962301731 -0.15469088405370712 2
      vertex 4.5 -0.2009618952870369 2
    endloop
  endfacet
  facet normal 0.41270700163588026 -0.9108638376841631 0
    outer loop
      vertex 4.675974853336811 -0.11418069899082184 0
      vertex 4.586566962301731 -0.15469088405370712 2
      vertex 4.586566962301731 -0.15469088405370712 0
    endloop
  endfacet
  facet normal 0.41270700163588026 -0.9108638376841631 0
    outer loop
      vertex 4.675974853336811 -0.11418069899082184 0
      vertex 4.675974853336811 -0.11418069899082184 2
      vertex 4.586566962301731 -0.15469088405370712 2
    endloop
  endfacet
  facet normal 0.3522500432234043 -0.9359059285254634 0
    outer loop
      vertex 4.767840802669525 -0.07960480451583862 0
      vertex 4.675974853336811 -0.11418069899082184 2
      vertex 4.675974853336811 -0.11418069899082184 0
    endloop
  endfacet
  facet normal 0.3522500432234043 -0.9359059285254634 0
    outer loop
      vertex 4.767840802669525 -0.07960480451583862 0
      vertex 4.767840802669525 -0.07960480451583862 2
      vertex 4.675974853336811 -0.11418069899082184 2
    endloop
  endfacet
  facet normal 0.2902846798735115 -0.9569403349377289 0
    outer loop
      vertex 4.861771434545517 -0.05111125856637955 0
      vertex 4.767840802669525 -0.07960480451583862 2
      vertex 4.767840802669525 -0.07960480451583862 0
    endloop
  endfacet
  facet normal 0.2902846798735115 -0.9569403349377289 0
    outer loop
      vertex 4.861771434545517 -0.05111125856637955 0
      vertex 4.861771434545517 -0.05111125856637955 2
      vertex 4.767840802669525 -0.07960480451583862 2
    endloop
  endfacet
  facet normal 0.2270762552204646 -0.9738769810992816 0
    outer loop
      vertex 4.9573645144701 -0.028822079300880432 0
      vertex 4.861771434545517 -0.05111125856637955 2
      vertex 4.861771434545517 -0.05111125856637955 0
    endloop
  endfacet
  facet normal 0.2270762552204646 -0.9738769810992816 0
    outer loop
      vertex 4.9573645144701 -0.028822079300880432 0
      vertex 4.9573645144701 -0.028822079300880432 2
      vertex 4.861771434545517 -0.05111125856637955 2
    endloop
  endfacet
  facet normal 0.16289545579530412 -0.9866433349905325 0
    outer loop
      vertex 5.054210714995861 -0.012832708656787872 0
      vertex 4.9573645144701 -0.028822079300880432 2
      vertex 4.9573645144701 -0.028822079300880432 0
    endloop
  endfacet
  facet normal 0.16289545579530412 -0.9866433349905325 0
    outer loop
      vertex 5.054210714995861 -0.012832708656787872 0
      vertex 5.054210714995861 -0.012832708656787872 2
      vertex 4.9573645144701 -0.028822079300880432 2
    endloop
  endfacet
  facet normal 0.09801712654380969 -0.9951847280299747 0
    outer loop
      vertex 5.151895307004452 -0.0032116174697875977 0
      vertex 5.054210714995861 -0.012832708656787872 2
      vertex 5.054210714995861 -0.012832708656787872 0
    endloop
  endfacet
  facet normal 0.09801712654380969 -0.9951847280299747 0
    outer loop
      vertex 5.151895307004452 -0.0032116174697875977 0
      vertex 5.151895307004452 -0.0032116174697875977 2
      vertex 5.054210714995861 -0.012832708656787872 2
    endloop
  endfacet
  facet normal 0.032719106793377285 -0.9994645866916163 0
    outer loop
      vertex 5.25 0 0
      vertex 5.151895307004452 -0.0032116174697875977 2
      vertex 5.151895307004452 -0.0032116174697875977 0
    endloop
  endfacet
  facet normal 0.032719106793377285 -0.9994645866916163 0
    outer loop
      vertex 5.25 0 0
      vertex 5.25 0 2
      vertex 5.151895307004452 -0.0032116174697875977 2
    endloop
  endfacet
  facet normal 0 -1 0
    outer loop
      vertex 11.75 0 0
      vertex 5.25 0 2
      vertex 5.25 0 0
    endloop
  endfacet
  facet normal 0 -1 0
    outer loop
      vertex 11.75 0 0
      vertex 11.75 0 2
      vertex 5.25 0 2
    endloop
  endfacet
  facet normal 1 0 0
    outer loop
      vertex 11.75 2.4500000029802322 0
      vertex 11.75 0 2
      vertex 11.75 0 0
    endloop
  endfacet
  facet normal 1 0 0
    outer loop
      vertex 11.75 2.4500000029802322 0
      vertex 11.75 2.4500000029802322 2
      vertex 11.75 0 2
    endloop
  endfacet
  facet normal 0 -1 0
    outer loop
      vertex 14.25 2.4500000029802322 0
      vertex 11.75 2.4500000029802322 2
      vertex 11.75 2.4500000029802322 0
    endloop
  endfacet
  facet normal 0 -1 0
    outer loop
      vertex 14.25 2.4500000029802322 0
      vertex 14.25 2.4500000029802322 2
      vertex 11.75 2.4500000029802322 2
    endloop
  endfacet
  facet normal -1 0 0
    outer loop
      vertex 14.25 -8 0
      vertex 14.25 2.4500000029802322 2
      vertex 14.25 2.4500000029802322 0
    endloop
  endfacet
  facet normal -1 0 0
    outer loop
      vertex 14.25 -8 0
      vertex 14.25 -8 2
      vertex 14.25 2.4500000029802322 2
    endloop
  endfacet
  facet normal 0 -1 0
    outer loop
      vertex 16.75 -8 0
      vertex 14.25 -8 2
      vertex 14.25 -8 0
    endloop
  endfacet
  facet normal 0 -1 0
    outer loop
      vertex 16.75 -8 0
      vertex 16.75 -8 2
      vertex 14.25 -8 2
    endloop
  endfacet
  facet normal 1 0 0
    outer loop
      vertex 16.75 -2 0
      vertex 16.75 -8 2
      vertex 16.75 -8 0
    endloop
  endfacet
  facet normal 1 0 0
    outer loop
      vertex 16.75 -2 0
      vertex 16.75 -2 2
      vertex 16.75 -8 2
    endloop
  endfacet
  facet normal 0.9994645873324807 -0.032719087217007954 0
    outer loop
      vertex 16.754282154142857 -1.8691937401890755 0
      vertex 16.75 -2 2
      vertex 16.75 -2 0
    endloop
  endfacet
  facet normal 0.9994645873324807 -0.032719087217007954 0
    outer loop
      vertex 16.754282154142857 -1.8691937401890755 0
      vertex 16.754282154142857 -1.8691937401890755 2
      vertex 16.75 -2 2
    endloop
  endfacet
  facet normal 0.9951847245102249 -0.09801716228042794 0
    outer loop
      vertex 16.767110280692577 -1.7389476150274277 0
      vertex 16.754282154142857 -1.8691937401890755 2
      vertex 16.754282154142857 -1.8691937401890755 0
    endloop
  endfacet
  facet normal 0.9951847245102249 -0.09801716228042794 0
    outer loop
      vertex 16.767110280692577 -1.7389476150274277 0
      vertex 16.767110280692577 -1.7389476150274277 2
      vertex 16.754282154142857 -1.8691937401890755 2
    endloop
  endfacet
  facet normal 0.9866433370333105 -0.16289544342237808 0
    outer loop
      vertex 16.78842943906784 -1.6098193526268005 0
      vertex 16.767110280692577 -1.7389476150274277 2
      vertex 16.767110280692577 -1.7389476150274277 0
    endloop
  endfacet
  facet normal 0.9866433370333105 -0.16289544342237808 0
    outer loop
      vertex 16.78842943906784 -1.6098193526268005 0
      vertex 16.78842943906784 -1.6098193526268005 2
      vertex 16.767110280692577 -1.7389476150274277 2
    endloop
  endfacet
  facet normal 0.9738769810992817 -0.22707625522046462 0
    outer loop
      vertex 16.818148344755173 -1.482361912727356 0
      vertex 16.78842943906784 -1.6098193526268005 2
      vertex 16.78842943906784 -1.6098193526268005 0
    endloop
  endfacet
  facet normal 0.9738769810992817 -0.22707625522046462 0
    outer loop
      vertex 16.818148344755173 -1.482361912727356 0
      vertex 16.818148344755173 -1.482361912727356 2
      vertex 16.78842943906784 -1.6098193526268005 2
    endloop
  endfacet
  facet normal 0.9569403280674134 -0.2902847025219059 0
    outer loop
      vertex 16.85613974183798 -1.3571210727095604 0
      vertex 16.818148344755173 -1.482361912727356 2
      vertex 16.818148344755173 -1.482361912727356 0
    endloop
  endfacet
  facet normal 0.9569403280674134 -0.2902847025219059 0
    outer loop
      vertex 16.85613974183798 -1.3571210727095604 0
      vertex 16.85613974183798 -1.3571210727095604 2
      vertex 16.818148344755173 -1.482361912727356 2
    endloop
  endfacet
  facet normal 0.9359059418450612 -0.35225000783407906 0
    outer loop
      vertex 16.902240931987762 -1.234633132815361 0
      vertex 16.85613974183798 -1.3571210727095604 2
      vertex 16.85613974183798 -1.3571210727095604 0
    endloop
  endfacet
  facet normal 0.9359059418450612 -0.35225000783407906 0
    outer loop
      vertex 16.902240931987762 -1.234633132815361 0
      vertex 16.902240931987762 -1.234633132815361 2
      vertex 16.85613974183798 -1.3571210727095604 2
    endloop
  endfacet
  facet normal 0.9108638033550432 -0.41270707740186025 0
    outer loop
      vertex 16.95625451952219 -1.1154226213693619 0
      vertex 16.902240931987762 -1.234633132815361 2
      vertex 16.902240931987762 -1.234633132815361 0
    endloop
  endfacet
  facet normal 0.9108638033550432 -0.41270707740186025 0
    outer loop
      vertex 16.95625451952219 -1.1154226213693619 0
      vertex 16.95625451952219 -1.1154226213693619 2
      vertex 16.902240931987762 -1.234633132815361 2
    endloop
  endfacet
  facet normal 0.8819212715549761 -0.4713967233433575 0
    outer loop
      vertex 17.01794919371605 -1 0
      vertex 16.95625451952219 -1.1154226213693619 2
      vertex 16.95625451952219 -1.1154226213693619 0
    endloop
  endfacet
  facet normal 0.8819212715549761 -0.4713967233433575 0
    outer loop
      vertex 17.01794919371605 -1 0
      vertex 17.01794919371605 -1 2
      vertex 16.95625451952219 -1.1154226213693619 2
    endloop
  endfacet
  facet normal 0.8492022004938756 -0.5280678201484726 0
    outer loop
      vertex 17.087060771882534 -0.8888595327734947 0
      vertex 17.01794919371605 -1 2
      vertex 17.01794919371605 -1 0
    endloop
  endfacet
  facet normal 0.8492022004938756 -0.5280678201484726 0
    outer loop
      vertex 17.087060771882534 -0.8888595327734947 0
      vertex 17.087060771882534 -0.8888595327734947 2
      vertex 17.01794919371605 -1 2
    endloop
  endfacet
  facet normal 0.8128466817299448 -0.5824777008612586 0
    outer loop
      vertex 17.163293316960335 -0.7824771404266357 0
      vertex 17.087060771882534 -0.8888595327734947 2
      vertex 17.087060771882534 -0.8888595327734947 0
    endloop
  endfacet
  facet normal 0.8128466817299448 -0.5824777008612586 0
    outer loop
      vertex 17.163293316960335 -0.7824771404266357 0
      vertex 17.163293316960335 -0.7824771404266357 2
      vertex 17.087060771882534 -0.8888595327734947 2
    endloop
  endfacet
  facet normal 0.7730104622497544 -0.634393273334783 0
    outer loop
      vertex 17.246320381760597 -0.6813083663582802 0
      vertex 17.163293316960335 -0.7824771404266357 2
      vertex 17.163293316960335 -0.7824771404266357 0
    endloop
  endfacet
  facet normal 0.7730104622497544 -0.634393273334783 0
    outer loop
      vertex 17.246320381760597 -0.6813083663582802 0
      vertex 17.246320381760597 -0.6813083663582802 2
      vertex 17.163293316960335 -0.7824771404266357 2
    endloop
  endfacet
  facet normal 0.7298640342308284 -0.6835923430936746 0
    outer loop
      vertex 17.335786439478397 -0.5857864394783974 0
      vertex 17.246320381760597 -0.6813083663582802 2
      vertex 17.246320381760597 -0.6813083663582802 0
    endloop
  endfacet
  facet normal 0.7298640342308284 -0.6835923430936746 0
    outer loop
      vertex 17.335786439478397 -0.5857864394783974 0
      vertex 17.335786439478397 -0.5857864394783974 2
      vertex 17.246320381760597 -0.6813083663582802 2
    endloop
  endfacet
  facet normal 0.6835923430936746 -0.7298640342308284 0
    outer loop
      vertex 17.43130836635828 -0.49632038176059723 0
      vertex 17.335786439478397 -0.5857864394783974 2
      vertex 17.335786439478397 -0.5857864394783974 0
    endloop
  endfacet
  facet normal 0.6835923430936746 -0.7298640342308284 0
    outer loop
      vertex 17.43130836635828 -0.49632038176059723 0
      vertex 17.43130836635828 -0.49632038176059723 2
      vertex 17.335786439478397 -0.5857864394783974 2
    endloop
  endfacet
  facet normal 0.634393273334783 -0.7730104622497544 0
    outer loop
      vertex 17.532477140426636 -0.4132933169603348 0
      vertex 17.43130836635828 -0.49632038176059723 2
      vertex 17.43130836635828 -0.49632038176059723 0
    endloop
  endfacet
  facet normal 0.634393273334783 -0.7730104622497544 0
    outer loop
      vertex 17.532477140426636 -0.4132933169603348 0
      vertex 17.532477140426636 -0.4132933169603348 2
      vertex 17.43130836635828 -0.49632038176059723 2
    endloop
  endfacet
  facet normal 0.5824777008612586 -0.8128466817299448 0
    outer loop
      vertex 17.638859532773495 -0.337060771882534 0
      vertex 17.532477140426636 -0.4132933169603348 2
      vertex 17.532477140426636 -0.4132933169603348 0
    endloop
  endfacet
  facet normal 0.5824777008612586 -0.8128466817299448 0
    outer loop
      vertex 17.638859532773495 -0.337060771882534 0
      vertex 17.638859532773495 -0.337060771882534 2
      vertex 17.532477140426636 -0.4132933169603348 2
    endloop
  endfacet
  facet normal 0.5280678201484726 -0.8492022004938756 0
    outer loop
      vertex 17.75 -0.2679491937160492 0
      vertex 17.638859532773495 -0.337060771882534 2
      vertex 17.638859532773495 -0.337060771882534 0
    endloop
  endfacet
  facet normal 0.5280678201484726 -0.8492022004938756 0
    outer loop
      vertex 17.75 -0.2679491937160492 0
      vertex 17.75 -0.2679491937160492 2
      vertex 17.638859532773495 -0.337060771882534 2
    endloop
  endfacet
  facet normal 0.4713967233433575 -0.8819212715549761 0
    outer loop
      vertex 17.865422621369362 -0.2062545195221901 0
      vertex 17.75 -0.2679491937160492 2
      vertex 17.75 -0.2679491937160492 0
    endloop
  endfacet
  facet normal 0.4713967233433575 -0.8819212715549761 0
    outer loop
      vertex 17.865422621369362 -0.2062545195221901 0
      vertex 17.865422621369362 -0.2062545195221901 2
      vertex 17.75 -0.2679491937160492 2
    endloop
  endfacet
  facet normal 0.41270707740186025 -0.9108638033550432 0
    outer loop
      vertex 17.98463313281536 -0.15224093198776245 0
      vertex 17.865422621369362 -0.2062545195221901 2
      vertex 17.865422621369362 -0.2062545195221901 0
    endloop
  endfacet
  facet normal 0.41270707740186025 -0.9108638033550432 0
    outer loop
      vertex 17.98463313281536 -0.15224093198776245 0
      vertex 17.98463313281536 -0.15224093198776245 2
      vertex 17.865422621369362 -0.2062545195221901 2
    endloop
  endfacet
  facet normal 0.35225000783407906 -0.9359059418450612 0
    outer loop
      vertex 18.10712107270956 -0.10613974183797836 0
      vertex 17.98463313281536 -0.15224093198776245 2
      vertex 17.98463313281536 -0.15224093198776245 0
    endloop
  endfacet
  facet normal 0.35225000783407906 -0.9359059418450612 0
    outer loop
      vertex 18.10712107270956 -0.10613974183797836 0
      vertex 18.10712107270956 -0.10613974183797836 2
      vertex 17.98463313281536 -0.15224093198776245 2
    endloop
  endfacet
  facet normal 0.2902847025219059 -0.9569403280674134 0
    outer loop
      vertex 18.232361912727356 -0.06814834475517273 0
      vertex 18.10712107270956 -0.10613974183797836 2
      vertex 18.10712107270956 -0.10613974183797836 0
    endloop
  endfacet
  facet normal 0.2902847025219059 -0.9569403280674134 0
    outer loop
      vertex 18.232361912727356 -0.06814834475517273 0
      vertex 18.232361912727356 -0.06814834475517273 2
      vertex 18.10712107270956 -0.10613974183797836 2
    endloop
  endfacet
  facet normal 0.22707625522046462 -0.9738769810992817 0
    outer loop
      vertex 18.3598193526268 -0.038429439067840576 0
      vertex 18.232361912727356 -0.06814834475517273 2
      vertex 18.232361912727356 -0.06814834475517273 0
    endloop
  endfacet
  facet normal 0.22707625522046462 -0.9738769810992817 0
    outer loop
      vertex 18.3598193526268 -0.038429439067840576 0
      vertex 18.3598193526268 -0.038429439067840576 2
      vertex 18.232361912727356 -0.06814834475517273 2
    endloop
  endfacet
  facet normal 0.16289544342237808 -0.9866433370333105 0
    outer loop
      vertex 18.488947615027428 -0.017110280692577362 0
      vertex 18.3598193526268 -0.038429439067840576 2
      vertex 18.3598193526268 -0.038429439067840576 0
    endloop
  endfacet
  facet normal 0.16289544342237808 -0.9866433370333105 0
    outer loop
      vertex 18.488947615027428 -0.017110280692577362 0
      vertex 18.488947615027428 -0.017110280692577362 2
      vertex 18.3598193526268 -0.038429439067840576 2
    endloop
  endfacet
  facet normal 0.09801716228042794 -0.9951847245102249 0
    outer loop
      vertex 18.619193740189075 -0.004282154142856598 0
      vertex 18.488947615027428 -0.017110280692577362 2
      vertex 18.488947615027428 -0.017110280692577362 0
    endloop
  endfacet
  facet normal 0.09801716228042794 -0.9951847245102249 0
    outer loop
      vertex 18.619193740189075 -0.004282154142856598 0
      vertex 18.619193740189075 -0.004282154142856598 2
      vertex 18.488947615027428 -0.017110280692577362 2
    endloop
  endfacet
  facet normal 0.032719087217007954 -0.9994645873324807 0
    outer loop
      vertex 18.75 0 0
      vertex 18.619193740189075 -0.004282154142856598 2
      vertex 18.619193740189075 -0.004282154142856598 0
    endloop
  endfacet
  facet normal 0.032719087217007954 -0.9994645873324807 0
    outer loop
      vertex 18.75 0 0
      vertex 18.75 0 2
      vertex 18.619193740189075 -0.004282154142856598 2
    endloop
  endfacet
  facet normal 0 -1 0
    outer loop
      vertex 24.75 0 0
      vertex 18.75 0 2
      vertex 18.75 0 0
    endloop
  endfacet
  facet normal 0 -1 0
    outer loop
      vertex 24.75 0 0
      vertex 24.75 0 2
      vertex 18.75 0 2
    endloop
  endfacet
  facet normal 1 0 0
    outer loop
      vertex 24.75 14.5 0
      vertex 24.75 0 2
      vertex 24.75 0 0
    endloop
  endfacet
  facet normal 1 0 0
    outer loop
      vertex 24.75 14.5 0
      vertex 24.75 14.5 2
      vertex 24.75 0 2
    endloop
  endfacet
  facet normal 0 1 0
    outer loop
      vertex -24.75 14.5 0
      vertex 24.75 14.5 2
      vertex 24.75 14.5 0
    endloop
  endfacet
  facet normal 0 1 0
    outer loop
      vertex -24.75 14.5 0
      vertex -24.75 14.5 2
      vertex 24.75 14.5 2
    endloop
  endfacet
  facet normal -1 0 0
    outer loop
      vertex -24.75 -8 0
      vertex -24.75 14.5 2
      vertex -24.75 14.5 0
    endloop
  endfacet
  facet normal -1 0 0
    outer loop
      vertex -24.75 -8 0
      vertex -24.75 -8 2
      vertex -24.75 14.5 2
    endloop
  endfacet
  facet normal 0 -1 0
    outer loop
      vertex -22.25 -8 0
      vertex -24.75 -8 2
      vertex -24.75 -8 0
    endloop
  endfacet
  facet normal 0 -1 0
    outer loop
      vertex -22.25 -8 0
      vertex -22.25 -8 2
      vertex -24.75 -8 2
    endloop
  endfacet
  facet normal 1 0 0
    outer loop
      vertex -22.25 -0.5 0
      vertex -22.25 -8 2
      vertex -22.25 -8 0
    endloop
  endfacet
  facet normal 1 0 0
    outer loop
      vertex -22.25 -0.5 0
      vertex -22.25 -0.5 2
      vertex -22.25 -8 2
    endloop
  endfacet
  facet normal 0 0 1
    outer loop
      vertex 18.75 0 2
      vertex 24.75 0 2
      vertex 24.75 14.5 2
    endloop
  endfacet
  facet normal 0 0 1
    outer loop
      vertex -24.75 -8 2
      vertex -22.25 -8 2
      vertex -22.25 -0.5 2
    endloop
  endfacet
  facet normal 0 0 1
    outer loop
      vertex -21.75 0 2
      vertex -14.25 0 2
      vertex -14.25 2.4500000029802322 2
    endloop
  endfacet
  facet normal 0 0 1
    outer loop
      vertex -11.75 -8 2
      vertex -9.25 -8 2
      vertex -9.25 -1 2
    endloop
  endfacet
  facet normal 0 0 1
    outer loop
      vertex -8.25 0 2
      vertex -1.25 0 2
      vertex -1.25 2.4500000029802322 2
    endloop
  endfacet
  facet normal 0 0 1
    outer loop
      vertex 1.25 -8 2
      vertex 3.75 -8 2
      vertex 3.75 -1.5 2
    endloop
  endfacet
  facet normal 0 0 1
    outer loop
      vertex 5.25 0 2
      vertex 11.75 0 2
      vertex 11.75 2.4500000029802322 2
    endloop
  endfacet
  facet normal 0 0 1
    outer loop
      vertex 14.25 -8 2
      vertex 16.75 -8 2
      vertex 16.75 -2 2
    endloop
  endfacet
  facet normal 0 0 1
    outer loop
      vertex -24.75 14.5 2
      vertex -24.75 -8 2
      vertex -22.25 -0.5 2
    endloop
  endfacet
  facet normal 0 0 1
    outer loop
      vertex -24.75 14.5 2
      vertex -22.25 -0.5 2
      vertex -22.24892946332693 -0.4672984331846237 2
    endloop
  endfacet
  facet normal 0 0 1
    outer loop
      vertex -24.75 14.5 2
      vertex -22.24892946332693 -0.4672984331846237 2
      vertex -22.24572242796421 -0.4347369074821472 2
    endloop
  endfacet
  facet normal 0 0 1
    outer loop
      vertex -24.75 14.5 2
      vertex -22.24572242796421 -0.4347369074821472 2
      vertex -22.24039264023304 -0.40245483815670013 2
    endloop
  endfacet
  facet normal 0 0 1
    outer loop
      vertex -24.75 14.5 2
      vertex -22.24039264023304 -0.40245483815670013 2
      vertex -22.232962913811207 -0.370590478181839 2
    endloop
  endfacet
  facet normal 0 0 1
    outer loop
      vertex -24.75 14.5 2
      vertex -22.232962913811207 -0.370590478181839 2
      vertex -22.22346506267786 -0.33928027004003525 2
    endloop
  endfacet
  facet normal 0 0 1
    outer loop
      vertex -24.75 14.5 2
      vertex -22.22346506267786 -0.33928027004003525 2
      vertex -22.21193976700306 -0.30865828692913055 2
    endloop
  endfacet
  facet normal 0 0 1
    outer loop
      vertex -24.75 14.5 2
      vertex -22.21193976700306 -0.30865828692913055 2
      vertex -22.198436371982098 -0.27885565161705017 2
    endloop
  endfacet
  facet normal 0 0 1
    outer loop
      vertex -24.75 14.5 2
      vertex -22.198436371982098 -0.27885565161705017 2
      vertex -22.183012701570988 -0.25 2
    endloop
  endfacet
  facet normal 0 0 1
    outer loop
      vertex -24.75 14.5 2
      vertex -22.183012701570988 -0.25 2
      vertex -22.16573480516672 -0.22221488505601883 2
    endloop
  endfacet
  facet normal 0 0 1
    outer loop
      vertex -24.75 14.5 2
      vertex -22.16573480516672 -0.22221488505601883 2
      vertex -22.146676667034626 -0.19561928510665894 2
    endloop
  endfacet
  facet normal 0 0 1
    outer loop
      vertex -24.75 14.5 2
      vertex -22.146676667034626 -0.19561928510665894 2
      vertex -22.12591990083456 -0.1703270897269249 2
    endloop
  endfacet
  facet normal 0 0 1
    outer loop
      vertex -24.75 14.5 2
      vertex -22.12591990083456 -0.1703270897269249 2
      vertex -22.103553391993046 -0.1464466080069542 2
    endloop
  endfacet
  facet normal 0 0 1
    outer loop
      vertex -24.75 14.5 2
      vertex -22.103553391993046 -0.1464466080069542 2
      vertex -22.079672910273075 -0.1240800991654396 2
    endloop
  endfacet
  facet normal 0 0 1
    outer loop
      vertex -24.75 14.5 2
      vertex -22.079672910273075 -0.1240800991654396 2
      vertex -22.05438071489334 -0.10332333296537399 2
    endloop
  endfacet
  facet normal 0 0 1
    outer loop
      vertex -24.75 14.5 2
      vertex -22.05438071489334 -0.10332333296537399 2
      vertex -22.02778511494398 -0.08426519483327866 2
    endloop
  endfacet
  facet normal 0 0 1
    outer loop
      vertex -24.75 14.5 2
      vertex -22.02778511494398 -0.08426519483327866 2
      vertex -22 -0.0669872984290123 2
    endloop
  endfacet
  facet normal 0 0 1
    outer loop
      vertex -24.75 14.5 2
      vertex -22 -0.0669872984290123 2
      vertex -21.97114434838295 -0.051563628017902374 2
    endloop
  endfacet
  facet normal 0 0 1
    outer loop
      vertex -24.75 14.5 2
      vertex -21.97114434838295 -0.051563628017902374 2
      vertex -21.94134171307087 -0.03806023299694061 2
    endloop
  endfacet
  facet normal 0 0 1
    outer loop
      vertex -24.75 14.5 2
      vertex -21.94134171307087 -0.03806023299694061 2
      vertex -21.910719729959965 -0.02653493732213974 2
    endloop
  endfacet
  facet normal 0 0 1
    outer loop
      vertex -24.75 14.5 2
      vertex -21.910719729959965 -0.02653493732213974 2
      vertex -21.87940952181816 -0.017037086188793182 2
    endloop
  endfacet
  facet normal 0 0 1
    outer loop
      vertex -24.75 14.5 2
      vertex -21.87940952181816 -0.017037086188793182 2
      vertex -21.8475451618433 -0.009607359766960144 2
    endloop
  endfacet
  facet normal 0 0 1
    outer loop
      vertex -24.75 14.5 2
      vertex -21.8475451618433 -0.009607359766960144 2
      vertex -21.815263092517853 -0.00427757203578949 2
    endloop
  endfacet
  facet normal 0 0 1
    outer loop
      vertex -24.75 14.5 2
      vertex -21.815263092517853 -0.00427757203578949 2
      vertex -21.782701566815376 -0.0010705366730690002 2
    endloop
  endfacet
  facet normal 0 0 1
    outer loop
      vertex -24.75 14.5 2
      vertex -21.782701566815376 -0.0010705366730690002 2
      vertex -21.75 0 2
    endloop
  endfacet
  facet normal 0 0 1
    outer loop
      vertex -24.75 14.5 2
      vertex -21.75 0 2
      vertex -14.25 2.4500000029802322 2
    endloop
  endfacet
  facet normal 0 0 1
    outer loop
      vertex -11.75 2.4500000029802322 2
      vertex -11.75 -8 2
      vertex -9.25 -1 2
    endloop
  endfacet
  facet normal 0 0 1
    outer loop
      vertex -11.75 2.4500000029802322 2
      vertex -9.25 -1 2
      vertex -9.247858926653862 -0.934596873819828 2
    endloop
  endfacet
  facet normal 0 0 1
    outer loop
      vertex -11.75 2.4500000029802322 2
      vertex -9.247858926653862 -0.934596873819828 2
      vertex -9.241444863379002 -0.8694738075137138 2
    endloop
  endfacet
  facet normal 0 0 1
    outer loop
      vertex -11.75 2.4500000029802322 2
      vertex -9.241444863379002 -0.8694738075137138 2
      vertex -9.23078528046608 -0.8049096763134003 2
    endloop
  endfacet
  facet normal 0 0 1
    outer loop
      vertex -11.75 2.4500000029802322 2
      vertex -9.23078528046608 -0.8049096763134003 2
      vertex -9.215925827622414 -0.741180956363678 2
    endloop
  endfacet
  facet normal 0 0 1
    outer loop
      vertex -11.75 2.4500000029802322 2
      vertex -9.215925827622414 -0.741180956363678 2
      vertex -9.196930132806301 -0.6785605326294899 2
    endloop
  endfacet
  facet normal 0 0 1
    outer loop
      vertex -11.75 2.4500000029802322 2
      vertex -9.196930132806301 -0.6785605326294899 2
      vertex -9.173879534006119 -0.6173165664076805 2
    endloop
  endfacet
  facet normal 0 0 1
    outer loop
      vertex -11.75 2.4500000029802322 2
      vertex -9.173879534006119 -0.6173165664076805 2
      vertex -9.146872743964195 -0.5577113106846809 2
    endloop
  endfacet
  facet normal 0 0 1
    outer loop
      vertex -11.75 2.4500000029802322 2
      vertex -9.146872743964195 -0.5577113106846809 2
      vertex -9.116025403141975 -0.5 2
    endloop
  endfacet
  facet normal 0 0 1
    outer loop
      vertex -11.75 2.4500000029802322 2
      vertex -9.116025403141975 -0.5 2
      vertex -9.081469610333443 -0.44442977011203766 2
    endloop
  endfacet
  facet normal 0 0 1
    outer loop
      vertex -11.75 2.4500000029802322 2
      vertex -9.081469610333443 -0.44442977011203766 2
      vertex -9.043353341519833 -0.39123857021331787 2
    endloop
  endfacet
  facet normal 0 0 1
    outer loop
      vertex -11.75 2.4500000029802322 2
      vertex -9.043353341519833 -0.39123857021331787 2
      vertex -9.001839809119701 -0.3406541869044304 2
    endloop
  endfacet
  facet normal 0 0 1
    outer loop
      vertex -11.75 2.4500000029802322 2
      vertex -9.001839809119701 -0.3406541869044304 2
      vertex -8.957106783986092 -0.2928932160139084 2
    endloop
  endfacet
  facet normal 0 0 1
    outer loop
      vertex -11.75 2.4500000029802322 2
      vertex -8.957106783986092 -0.2928932160139084 2
      vertex -8.90934581309557 -0.24816019088029861 2
    endloop
  endfacet
  facet normal 0 0 1
    outer loop
      vertex -11.75 2.4500000029802322 2
      vertex -8.90934581309557 -0.24816019088029861 2
      vertex -8.858761429786682 -0.2066466584801674 2
    endloop
  endfacet
  facet normal 0 0 1
    outer loop
      vertex -11.75 2.4500000029802322 2
      vertex -8.858761429786682 -0.2066466584801674 2
      vertex -8.805570229887962 -0.1685303896665573 2
    endloop
  endfacet
  facet normal 0 0 1
    outer loop
      vertex -11.75 2.4500000029802322 2
      vertex -8.805570229887962 -0.1685303896665573 2
      vertex -8.75 -0.1339745968580246 2
    endloop
  endfacet
  facet normal 0 0 1
    outer loop
      vertex 1.25 2.4500000029802322 2
      vertex 1.25 -8 2
      vertex 3.75 -1.5 2
    endloop
  endfacet
  facet normal 0 0 1
    outer loop
      vertex 1.25 2.4500000029802322 2
      vertex 3.75 -1.5 2
      vertex 3.7532116174697876 -1.4018953070044518 2
    endloop
  endfacet
  facet normal 0 0 1
    outer loop
      vertex 1.25 2.4500000029802322 2
      vertex 3.7532116174697876 -1.4018953070044518 2
      vertex 3.762832708656788 -1.304210714995861 2
    endloop
  endfacet
  facet normal 0 0 1
    outer loop
      vertex 1.25 2.4500000029802322 2
      vertex 3.762832708656788 -1.304210714995861 2
      vertex 3.7788220793008804 -1.2073645144701004 2
    endloop
  endfacet
  facet normal 0 0 1
    outer loop
      vertex 1.25 2.4500000029802322 2
      vertex 3.7788220793008804 -1.2073645144701004 2
      vertex 3.8011112585663795 -1.111771434545517 2
    endloop
  endfacet
  facet normal 0 0 1
    outer loop
      vertex 1.25 2.4500000029802322 2
      vertex 3.8011112585663795 -1.111771434545517 2
      vertex 3.8296048045158386 -1.0178408026695251 2
    endloop
  endfacet
  facet normal 0 0 1
    outer loop
      vertex 1.25 2.4500000029802322 2
      vertex 3.8296048045158386 -1.0178408026695251 2
      vertex 3.864180698990822 -0.9259748533368111 2
    endloop
  endfacet
  facet normal 0 0 1
    outer loop
      vertex 1.25 2.4500000029802322 2
      vertex 3.864180698990822 -0.9259748533368111 2
      vertex 3.904690884053707 -0.8365669623017311 2
    endloop
  endfacet
  facet normal 0 0 1
    outer loop
      vertex 1.25 2.4500000029802322 2
      vertex 3.904690884053707 -0.8365669623017311 2
      vertex 3.950961895287037 -0.75 2
    endloop
  endfacet
  facet normal 0 0 1
    outer loop
      vertex 1.25 2.4500000029802322 2
      vertex 3.950961895287037 -0.75 2
      vertex 4.002795584499836 -0.6666446477174759 2
    endloop
  endfacet
  facet normal 0 0 1
    outer loop
      vertex 1.25 2.4500000029802322 2
      vertex 4.002795584499836 -0.6666446477174759 2
      vertex 4.059969991445541 -0.5868578553199768 2
    endloop
  endfacet
  facet normal 0 0 1
    outer loop
      vertex 1.25 2.4500000029802322 2
      vertex 4.059969991445541 -0.5868578553199768 2
      vertex 4.122240290045738 -0.5109812766313553 2
    endloop
  endfacet
  facet normal 0 0 1
    outer loop
      vertex 1.25 2.4500000029802322 2
      vertex 4.122240290045738 -0.5109812766313553 2
      vertex 4.189339831471443 -0.4393398314714432 2
    endloop
  endfacet
  facet normal 0 0 1
    outer loop
      vertex 1.25 2.4500000029802322 2
      vertex 4.189339831471443 -0.4393398314714432 2
      vertex 4.260981276631355 -0.3722402900457382 2
    endloop
  endfacet
  facet normal 0 0 1
    outer loop
      vertex 1.25 2.4500000029802322 2
      vertex 4.260981276631355 -0.3722402900457382 2
      vertex 4.336857855319977 -0.3099699914455414 2
    endloop
  endfacet
  facet normal 0 0 1
    outer loop
      vertex 1.25 2.4500000029802322 2
      vertex 4.336857855319977 -0.3099699914455414 2
      vertex 4.416644647717476 -0.25279558449983597 2
    endloop
  endfacet
  facet normal 0 0 1
    outer loop
      vertex 1.25 2.4500000029802322 2
      vertex 4.416644647717476 -0.25279558449983597 2
      vertex 4.5 -0.2009618952870369 2
    endloop
  endfacet
  facet normal 0 0 1
    outer loop
      vertex -11.75 2.4500000029802322 2
      vertex -8.75 -0.1339745968580246 2
      vertex -8.692288689315319 -0.10312725603580475 2
    endloop
  endfacet
  facet normal 0 0 1
    outer loop
      vertex 1.25 2.4500000029802322 2
      vertex 4.5 -0.2009618952870369 2
      vertex 4.586566962301731 -0.15469088405370712 2
    endloop
  endfacet
  facet normal 0 0 1
    outer loop
      vertex 18.619193740189075 -0.004282154142856598 2
      vertex 18.75 0 2
      vertex 24.75 14.5 2
    endloop
  endfacet
  facet normal 0 0 1
    outer loop
      vertex 14.25 2.4500000029802322 2
      vertex 14.25 -8 2
      vertex 16.75 -2 2
    endloop
  endfacet
  facet normal 0 0 1
    outer loop
      vertex 14.25 2.4500000029802322 2
      vertex 16.75 -2 2
      vertex 16.754282154142857 -1.8691937401890755 2
    endloop
  endfacet
  facet normal 0 0 1
    outer loop
      vertex 14.25 2.4500000029802322 2
      vertex 16.754282154142857 -1.8691937401890755 2
      vertex 16.767110280692577 -1.7389476150274277 2
    endloop
  endfacet
  facet normal 0 0 1
    outer loop
      vertex 14.25 2.4500000029802322 2
      vertex 16.767110280692577 -1.7389476150274277 2
      vertex 16.78842943906784 -1.6098193526268005 2
    endloop
  endfacet
  facet normal 0 0 1
    outer loop
      vertex 14.25 2.4500000029802322 2
      vertex 16.78842943906784 -1.6098193526268005 2
      vertex 16.818148344755173 -1.482361912727356 2
    endloop
  endfacet
  facet normal 0 0 1
    outer loop
      vertex 14.25 2.4500000029802322 2
      vertex 16.818148344755173 -1.482361912727356 2
      vertex 16.85613974183798 -1.3571210727095604 2
    endloop
  endfacet
  facet normal 0 0 1
    outer loop
      vertex 14.25 2.4500000029802322 2
      vertex 16.85613974183798 -1.3571210727095604 2
      vertex 16.902240931987762 -1.234633132815361 2
    endloop
  endfacet
  facet normal 0 0 1
    outer loop
      vertex 14.25 2.4500000029802322 2
      vertex 16.902240931987762 -1.234633132815361 2
      vertex 16.95625451952219 -1.1154226213693619 2
    endloop
  endfacet
  facet normal 0 0 1
    outer loop
      vertex 14.25 2.4500000029802322 2
      vertex 16.95625451952219 -1.1154226213693619 2
      vertex 17.01794919371605 -1 2
    endloop
  endfacet
  facet normal 0 0 1
    outer loop
      vertex 14.25 2.4500000029802322 2
      vertex 17.01794919371605 -1 2
      vertex 17.087060771882534 -0.8888595327734947 2
    endloop
  endfacet
  facet normal 0 0 1
    outer loop
      vertex 14.25 2.4500000029802322 2
      vertex 17.087060771882534 -0.8888595327734947 2
      vertex 17.163293316960335 -0.7824771404266357 2
    endloop
  endfacet
  facet normal 0 0 1
    outer loop
      vertex 14.25 2.4500000029802322 2
      vertex 17.163293316960335 -0.7824771404266357 2
      vertex 17.246320381760597 -0.6813083663582802 2
    endloop
  endfacet
  facet normal 0 0 1
    outer loop
      vertex 14.25 2.4500000029802322 2
      vertex 17.246320381760597 -0.6813083663582802 2
      vertex 17.335786439478397 -0.5857864394783974 2
    endloop
  endfacet
  facet normal 0 0 1
    outer loop
      vertex 14.25 2.4500000029802322 2
      vertex 17.335786439478397 -0.5857864394783974 2
      vertex 17.43130836635828 -0.49632038176059723 2
    endloop
  endfacet
  facet normal 0 0 1
    outer loop
      vertex 14.25 2.4500000029802322 2
      vertex 17.43130836635828 -0.49632038176059723 2
      vertex 17.532477140426636 -0.4132933169603348 2
    endloop
  endfacet
  facet normal 0 0 1
    outer loop
      vertex 14.25 2.4500000029802322 2
      vertex 17.532477140426636 -0.4132933169603348 2
      vertex 17.638859532773495 -0.337060771882534 2
    endloop
  endfacet
  facet normal 0 0 1
    outer loop
      vertex 14.25 2.4500000029802322 2
      vertex 17.638859532773495 -0.337060771882534 2
      vertex 17.75 -0.2679491937160492 2
    endloop
  endfacet
  facet normal 0 0 1
    outer loop
      vertex 14.25 2.4500000029802322 2
      vertex 17.75 -0.2679491937160492 2
      vertex 17.865422621369362 -0.2062545195221901 2
    endloop
  endfacet
  facet normal 0 0 1
    outer loop
      vertex -11.75 2.4500000029802322 2
      vertex -8.692288689315319 -0.10312725603580475 2
      vertex -8.63268343359232 -0.07612046599388123 2
    endloop
  endfacet
  facet normal 0 0 1
    outer loop
      vertex 1.25 2.4500000029802322 2
      vertex 4.586566962301731 -0.15469088405370712 2
      vertex 4.675974853336811 -0.11418069899082184 2
    endloop
  endfacet
  facet normal 0 0 1
    outer loop
      vertex 18.488947615027428 -0.017110280692577362 2
      vertex 18.619193740189075 -0.004282154142856598 2
      vertex 24.75 14.5 2
    endloop
  endfacet
  facet normal 0 0 1
    outer loop
      vertex 14.25 2.4500000029802322 2
      vertex 17.865422621369362 -0.2062545195221901 2
      vertex 17.98463313281536 -0.15224093198776245 2
    endloop
  endfacet
  facet normal 0 0 1
    outer loop
      vertex -11.75 2.4500000029802322 2
      vertex -8.63268343359232 -0.07612046599388123 2
      vertex -8.57143946737051 -0.05306986719369888 2
    endloop
  endfacet
  facet normal 0 0 1
    outer loop
      vertex 1.25 2.4500000029802322 2
      vertex 4.675974853336811 -0.11418069899082184 2
      vertex 4.767840802669525 -0.07960480451583862 2
    endloop
  endfacet
  facet normal 0 0 1
    outer loop
      vertex 18.3598193526268 -0.038429439067840576 2
      vertex 18.488947615027428 -0.017110280692577362 2
      vertex 24.75 14.5 2
    endloop
  endfacet
  facet normal 0 0 1
    outer loop
      vertex 14.25 2.4500000029802322 2
      vertex 17.98463313281536 -0.15224093198776245 2
      vertex 18.10712107270956 -0.10613974183797836 2
    endloop
  endfacet
  facet normal 0 0 1
    outer loop
      vertex -11.75 2.4500000029802322 2
      vertex -8.57143946737051 -0.05306986719369888 2
      vertex -8.508819043636322 -0.034074172377586365 2
    endloop
  endfacet
  facet normal 0 0 1
    outer loop
      vertex 18.232361912727356 -0.06814834475517273 2
      vertex 18.3598193526268 -0.038429439067840576 2
      vertex 24.75 14.5 2
    endloop
  endfacet
  facet normal 0 0 1
    outer loop
      vertex 1.25 2.4500000029802322 2
      vertex 4.767840802669525 -0.07960480451583862 2
      vertex 4.861771434545517 -0.05111125856637955 2
    endloop
  endfacet
  facet normal 0 0 1
    outer loop
      vertex -11.75 2.4500000029802322 2
      vertex -8.508819043636322 -0.034074172377586365 2
      vertex -8.4450903236866 -0.019214719533920288 2
    endloop
  endfacet
  facet normal 0 0 1
    outer loop
      vertex 14.25 2.4500000029802322 2
      vertex 18.10712107270956 -0.10613974183797836 2
      vertex 18.232361912727356 -0.06814834475517273 2
    endloop
  endfacet
  facet normal 0 0 1
    outer loop
      vertex 14.25 2.4500000029802322 2
      vertex 18.232361912727356 -0.06814834475517273 2
      vertex 24.75 14.5 2
    endloop
  endfacet
  facet normal 0 0 1
    outer loop
      vertex -24.75 14.5 2
      vertex -14.25 2.4500000029802322 2
      vertex -11.75 2.4500000029802322 2
    endloop
  endfacet
  facet normal 0 0 1
    outer loop
      vertex 11.75 2.4500000029802322 2
      vertex 14.25 2.4500000029802322 2
      vertex 24.75 14.5 2
    endloop
  endfacet
  facet normal 0 0 1
    outer loop
      vertex 1.25 2.4500000029802322 2
      vertex 4.861771434545517 -0.05111125856637955 2
      vertex 4.9573645144701 -0.028822079300880432 2
    endloop
  endfacet
  facet normal 0 0 1
    outer loop
      vertex -11.75 2.4500000029802322 2
      vertex -8.4450903236866 -0.019214719533920288 2
      vertex -8.380526192486286 -0.008555136620998383 2
    endloop
  endfacet
  facet normal 0 0 1
    outer loop
      vertex 1.25 2.4500000029802322 2
      vertex 4.9573645144701 -0.028822079300880432 2
      vertex 5.054210714995861 -0.012832708656787872 2
    endloop
  endfacet
  facet normal 0 0 1
    outer loop
      vertex -11.75 2.4500000029802322 2
      vertex -8.380526192486286 -0.008555136620998383 2
      vertex -8.315403126180172 -0.0021410733461380005 2
    endloop
  endfacet
  facet normal 0 0 1
    outer loop
      vertex 1.25 2.4500000029802322 2
      vertex 5.054210714995861 -0.012832708656787872 2
      vertex 5.151895307004452 -0.0032116174697875977 2
    endloop
  endfacet
  facet normal 0 0 1
    outer loop
      vertex -11.75 2.4500000029802322 2
      vertex -8.315403126180172 -0.0021410733461380005 2
      vertex -8.25 0 2
    endloop
  endfacet
  facet normal 0 0 1
    outer loop
      vertex -11.75 2.4500000029802322 2
      vertex -8.25 0 2
      vertex -1.25 2.4500000029802322 2
    endloop
  endfacet
  facet normal 0 0 1
    outer loop
      vertex -24.75 14.5 2
      vertex -11.75 2.4500000029802322 2
      vertex -1.25 2.4500000029802322 2
    endloop
  endfacet
  facet normal 0 0 1
    outer loop
      vertex 24.75 14.5 2
      vertex -24.75 14.5 2
      vertex -1.25 2.4500000029802322 2
    endloop
  endfacet
  facet normal 0 0 1
    outer loop
      vertex 24.75 14.5 2
      vertex -1.25 2.4500000029802322 2
      vertex 1.25 2.4500000029802322 2
    endloop
  endfacet
  facet normal 0 0 1
    outer loop
      vertex 11.75 2.4500000029802322 2
      vertex 24.75 14.5 2
      vertex 1.25 2.4500000029802322 2
    endloop
  endfacet
  facet normal 0 0 1
    outer loop
      vertex 11.75 2.4500000029802322 2
      vertex 1.25 2.4500000029802322 2
      vertex 5.151895307004452 -0.0032116174697875977 2
    endloop
  endfacet
  facet normal 0 0 1
    outer loop
      vertex 5.25 0 2
      vertex 11.75 2.4500000029802322 2
      vertex 5.151895307004452 -0.0032116174697875977 2
    endloop
  endfacet
  facet normal 0 0 -1
    outer loop
      vertex 24.75 14.5 0
      vertex 24.75 0 0
      vertex 18.75 0 0
    endloop
  endfacet
  facet normal 0 0 -1
    outer loop
      vertex -22.25 -0.5 0
      vertex -22.25 -8 0
      vertex -24.75 -8 0
    endloop
  endfacet
  facet normal 0 0 -1
    outer loop
      vertex -14.25 2.4500000029802322 0
      vertex -14.25 0 0
      vertex -21.75 0 0
    endloop
  endfacet
  facet normal 0 0 -1
    outer loop
      vertex -9.25 -1 0
      vertex -9.25 -8 0
      vertex -11.75 -8 0
    endloop
  endfacet
  facet normal 0 0 -1
    outer loop
      vertex -1.25 2.4500000029802322 0
      vertex -1.25 0 0
      vertex -8.25 0 0
    endloop
  endfacet
  facet normal 0 0 -1
    outer loop
      vertex 3.75 -1.5 0
      vertex 3.75 -8 0
      vertex 1.25 -8 0
    endloop
  endfacet
  facet normal 0 0 -1
    outer loop
      vertex 11.75 2.4500000029802322 0
      vertex 11.75 0 0
      vertex 5.25 0 0
    endloop
  endfacet
  facet normal 0 0 -1
    outer loop
      vertex 16.75 -2 0
      vertex 16.75 -8 0
      vertex 14.25 -8 0
    endloop
  endfacet
  facet normal 0 0 -1
    outer loop
      vertex -22.25 -0.5 0
      vertex -24.75 -8 0
      vertex -24.75 14.5 0
    endloop
  endfacet
  facet normal 0 0 -1
    outer loop
      vertex -22.24892946332693 -0.4672984331846237 0
      vertex -22.25 -0.5 0
      vertex -24.75 14.5 0
    endloop
  endfacet
  facet normal 0 0 -1
    outer loop
      vertex -22.24572242796421 -0.4347369074821472 0
      vertex -22.24892946332693 -0.4672984331846237 0
      vertex -24.75 14.5 0
    endloop
  endfacet
  facet normal 0 0 -1
    outer loop
      vertex -22.24039264023304 -0.40245483815670013 0
      vertex -22.24572242796421 -0.4347369074821472 0
      vertex -24.75 14.5 0
    endloop
  endfacet
  facet normal 0 0 -1
    outer loop
      vertex -22.232962913811207 -0.370590478181839 0
      vertex -22.24039264023304 -0.40245483815670013 0
      vertex -24.75 14.5 0
    endloop
  endfacet
  facet normal 0 0 -1
    outer loop
      vertex -22.22346506267786 -0.33928027004003525 0
      vertex -22.232962913811207 -0.370590478181839 0
      vertex -24.75 14.5 0
    endloop
  endfacet
  facet normal 0 0 -1
    outer loop
      vertex -22.21193976700306 -0.30865828692913055 0
      vertex -22.22346506267786 -0.33928027004003525 0
      vertex -24.75 14.5 0
    endloop
  endfacet
  facet normal 0 0 -1
    outer loop
      vertex -22.198436371982098 -0.27885565161705017 0
      vertex -22.21193976700306 -0.30865828692913055 0
      vertex -24.75 14.5 0
    endloop
  endfacet
  facet normal 0 0 -1
    outer loop
      vertex -22.183012701570988 -0.25 0
      vertex -22.198436371982098 -0.27885565161705017 0
      vertex -24.75 14.5 0
    endloop
  endfacet
  facet normal 0 0 -1
    outer loop
      vertex -22.16573480516672 -0.22221488505601883 0
      vertex -22.183012701570988 -0.25 0
      vertex -24.75 14.5 0
    endloop
  endfacet
  facet normal 0 0 -1
    outer loop
      vertex -22.146676667034626 -0.19561928510665894 0
      vertex -22.16573480516672 -0.22221488505601883 0
      vertex -24.75 14.5 0
    endloop
  endfacet
  facet normal 0 0 -1
    outer loop
      vertex -22.12591990083456 -0.1703270897269249 0
      vertex -22.146676667034626 -0.19561928510665894 0
      vertex -24.75 14.5 0
    endloop
  endfacet
  facet normal 0 0 -1
    outer loop
      vertex -22.103553391993046 -0.1464466080069542 0
      vertex -22.12591990083456 -0.1703270897269249 0
      vertex -24.75 14.5 0
    endloop
  endfacet
  facet normal 0 0 -1
    outer loop
      vertex -22.079672910273075 -0.1240800991654396 0
      vertex -22.103553391993046 -0.1464466080069542 0
      vertex -24.75 14.5 0
    endloop
  endfacet
  facet normal 0 0 -1
    outer loop
      vertex -22.05438071489334 -0.10332333296537399 0
      vertex -22.079672910273075 -0.1240800991654396 0
      vertex -24.75 14.5 0
    endloop
  endfacet
  facet normal 0 0 -1
    outer loop
      vertex -22.02778511494398 -0.08426519483327866 0
      vertex -22.05438071489334 -0.10332333296537399 0
      vertex -24.75 14.5 0
    endloop
  endfacet
  facet normal 0 0 -1
    outer loop
      vertex -22 -0.0669872984290123 0
      vertex -22.02778511494398 -0.08426519483327866 0
      vertex -24.75 14.5 0
    endloop
  endfacet
  facet normal 0 0 -1
    outer loop
      vertex -21.97114434838295 -0.051563628017902374 0
      vertex -22 -0.0669872984290123 0
      vertex -24.75 14.5 0
    endloop
  endfacet
  facet normal 0 0 -1
    outer loop
      vertex -21.94134171307087 -0.03806023299694061 0
      vertex -21.97114434838295 -0.051563628017902374 0
      vertex -24.75 14.5 0
    endloop
  endfacet
  facet normal 0 0 -1
    outer loop
      vertex -21.910719729959965 -0.02653493732213974 0
      vertex -21.94134171307087 -0.03806023299694061 0
      vertex -24.75 14.5 0
    endloop
  endfacet
  facet normal 0 0 -1
    outer loop
      vertex -21.87940952181816 -0.017037086188793182 0
      vertex -21.910719729959965 -0.02653493732213974 0
      vertex -24.75 14.5 0
    endloop
  endfacet
  facet normal 0 0 -1
    outer loop
      vertex -21.8475451618433 -0.009607359766960144 0
      vertex -21.87940952181816 -0.017037086188793182 0
      vertex -24.75 14.5 0
    endloop
  endfacet
  facet normal 0 0 -1
    outer loop
      vertex -21.815263092517853 -0.00427757203578949 0
      vertex -21.8475451618433 -0.009607359766960144 0
      vertex -24.75 14.5 0
    endloop
  endfacet
  facet normal 0 0 -1
    outer loop
      vertex -21.782701566815376 -0.0010705366730690002 0
      vertex -21.815263092517853 -0.00427757203578949 0
      vertex -24.75 14.5 0
    endloop
  endfacet
  facet normal 0 0 -1
    outer loop
      vertex -21.75 0 0
      vertex -21.782701566815376 -0.0010705366730690002 0
      vertex -24.75 14.5 0
    endloop
  endfacet
  facet normal 0 0 -1
    outer loop
      vertex -14.25 2.4500000029802322 0
      vertex -21.75 0 0
      vertex -24.75 14.5 0
    endloop
  endfacet
  facet normal 0 0 -1
    outer loop
      vertex -9.25 -1 0
      vertex -11.75 -8 0
      vertex -11.75 2.4500000029802322 0
    endloop
  endfacet
  facet normal 0 0 -1
    outer loop
      vertex -9.247858926653862 -0.934596873819828 0
      vertex -9.25 -1 0
      vertex -11.75 2.4500000029802322 0
    endloop
  endfacet
  facet normal 0 0 -1
    outer loop
      vertex -9.241444863379002 -0.8694738075137138 0
      vertex -9.247858926653862 -0.934596873819828 0
      vertex -11.75 2.4500000029802322 0
    endloop
  endfacet
  facet normal 0 0 -1
    outer loop
      vertex -9.23078528046608 -0.8049096763134003 0
      vertex -9.241444863379002 -0.8694738075137138 0
      vertex -11.75 2.4500000029802322 0
    endloop
  endfacet
  facet normal 0 0 -1
    outer loop
      vertex -9.215925827622414 -0.741180956363678 0
      vertex -9.23078528046608 -0.8049096763134003 0
      vertex -11.75 2.4500000029802322 0
    endloop
  endfacet
  facet normal 0 0 -1
    outer loop
      vertex -9.196930132806301 -0.6785605326294899 0
      vertex -9.215925827622414 -0.741180956363678 0
      vertex -11.75 2.4500000029802322 0
    endloop
  endfacet
  facet normal 0 0 -1
    outer loop
      vertex -9.173879534006119 -0.6173165664076805 0
      vertex -9.196930132806301 -0.6785605326294899 0
      vertex -11.75 2.4500000029802322 0
    endloop
  endfacet
  facet normal 0 0 -1
    outer loop
      vertex -9.146872743964195 -0.5577113106846809 0
      vertex -9.173879534006119 -0.6173165664076805 0
      vertex -11.75 2.4500000029802322 0
    endloop
  endfacet
  facet normal 0 0 -1
    outer loop
      vertex -9.116025403141975 -0.5 0
      vertex -9.146872743964195 -0.5577113106846809 0
      vertex -11.75 2.4500000029802322 0
    endloop
  endfacet
  facet normal 0 0 -1
    outer loop
      vertex -9.081469610333443 -0.44442977011203766 0
      vertex -9.116025403141975 -0.5 0
      vertex -11.75 2.4500000029802322 0
    endloop
  endfacet
  facet normal 0 0 -1
    outer loop
      vertex -9.043353341519833 -0.39123857021331787 0
      vertex -9.081469610333443 -0.44442977011203766 0
      vertex -11.75 2.4500000029802322 0
    endloop
  endfacet
  facet normal 0 0 -1
    outer loop
      vertex -9.001839809119701 -0.3406541869044304 0
      vertex -9.043353341519833 -0.39123857021331787 0
      vertex -11.75 2.4500000029802322 0
    endloop
  endfacet
  facet normal 0 0 -1
    outer loop
      vertex -8.957106783986092 -0.2928932160139084 0
      vertex -9.001839809119701 -0.3406541869044304 0
      vertex -11.75 2.4500000029802322 0
    endloop
  endfacet
  facet normal 0 0 -1
    outer loop
      vertex -8.90934581309557 -0.24816019088029861 0
      vertex -8.957106783986092 -0.2928932160139084 0
      vertex -11.75 2.4500000029802322 0
    endloop
  endfacet
  facet normal 0 0 -1
    outer loop
      vertex -8.858761429786682 -0.2066466584801674 0
      vertex -8.90934581309557 -0.24816019088029861 0
      vertex -11.75 2.4500000029802322 0
    endloop
  endfacet
  facet normal 0 0 -1
    outer loop
      vertex -8.805570229887962 -0.1685303896665573 0
      vertex -8.858761429786682 -0.2066466584801674 0
      vertex -11.75 2.4500000029802322 0
    endloop
  endfacet
  facet normal 0 0 -1
    outer loop
      vertex -8.75 -0.1339745968580246 0
      vertex -8.805570229887962 -0.1685303896665573 0
      vertex -11.75 2.4500000029802322 0
    endloop
  endfacet
  facet normal 0 0 -1
    outer loop
      vertex 3.75 -1.5 0
      vertex 1.25 -8 0
      vertex 1.25 2.4500000029802322 0
    endloop
  endfacet
  facet normal 0 0 -1
    outer loop
      vertex 3.7532116174697876 -1.4018953070044518 0
      vertex 3.75 -1.5 0
      vertex 1.25 2.4500000029802322 0
    endloop
  endfacet
  facet normal 0 0 -1
    outer loop
      vertex 3.762832708656788 -1.304210714995861 0
      vertex 3.7532116174697876 -1.4018953070044518 0
      vertex 1.25 2.4500000029802322 0
    endloop
  endfacet
  facet normal 0 0 -1
    outer loop
      vertex 3.7788220793008804 -1.2073645144701004 0
      vertex 3.762832708656788 -1.304210714995861 0
      vertex 1.25 2.4500000029802322 0
    endloop
  endfacet
  facet normal 0 0 -1
    outer loop
      vertex 3.8011112585663795 -1.111771434545517 0
      vertex 3.7788220793008804 -1.2073645144701004 0
      vertex 1.25 2.4500000029802322 0
    endloop
  endfacet
  facet normal 0 0 -1
    outer loop
      vertex 3.8296048045158386 -1.0178408026695251 0
      vertex 3.8011112585663795 -1.111771434545517 0
      vertex 1.25 2.4500000029802322 0
    endloop
  endfacet
  facet normal 0 0 -1
    outer loop
      vertex 3.864180698990822 -0.9259748533368111 0
      vertex 3.8296048045158386 -1.0178408026695251 0
      vertex 1.25 2.4500000029802322 0
    endloop
  endfacet
  facet normal 0 0 -1
    outer loop
      vertex 3.904690884053707 -0.8365669623017311 0
      vertex 3.864180698990822 -0.9259748533368111 0
      vertex 1.25 2.4500000029802322 0
    endloop
  endfacet
  facet normal 0 0 -1
    outer loop
      vertex 3.950961895287037 -0.75 0
      vertex 3.904690884053707 -0.8365669623017311 0
      vertex 1.25 2.4500000029802322 0
    endloop
  endfacet
  facet normal 0 0 -1
    outer loop
      vertex 4.002795584499836 -0.6666446477174759 0
      vertex 3.950961895287037 -0.75 0
      vertex 1.25 2.4500000029802322 0
    endloop
  endfacet
  facet normal 0 0 -1
    outer loop
      vertex 4.059969991445541 -0.5868578553199768 0
      vertex 4.002795584499836 -0.6666446477174759 0
      vertex 1.25 2.4500000029802322 0
    endloop
  endfacet
  facet normal 0 0 -1
    outer loop
      vertex 4.122240290045738 -0.5109812766313553 0
      vertex 4.059969991445541 -0.5868578553199768 0
      vertex 1.25 2.4500000029802322 0
    endloop
  endfacet
  facet normal 0 0 -1
    outer loop
      vertex 4.189339831471443 -0.4393398314714432 0
      vertex 4.122240290045738 -0.5109812766313553 0
      vertex 1.25 2.4500000029802322 0
    endloop
  endfacet
  facet normal 0 0 -1
    outer loop
      vertex 4.260981276631355 -0.3722402900457382 0
      vertex 4.189339831471443 -0.4393398314714432 0
      vertex 1.25 2.4500000029802322 0
    endloop
  endfacet
  facet normal 0 0 -1
    outer loop
      vertex 4.336857855319977 -0.3099699914455414 0
      vertex 4.260981276631355 -0.3722402900457382 0
      vertex 1.25 2.4500000029802322 0
    endloop
  endfacet
  facet normal 0 0 -1
    outer loop
      vertex 4.416644647717476 -0.25279558449983597 0
      vertex 4.336857855319977 -0.3099699914455414 0
      vertex 1.25 2.4500000029802322 0
    endloop
  endfacet
  facet normal 0 0 -1
    outer loop
      vertex 4.5 -0.2009618952870369 0
      vertex 4.416644647717476 -0.25279558449983597 0
      vertex 1.25 2.4500000029802322 0
    endloop
  endfacet
  facet normal 0 0 -1
    outer loop
      vertex -8.692288689315319 -0.10312725603580475 0
      vertex -8.75 -0.1339745968580246 0
      vertex -11.75 2.4500000029802322 0
    endloop
  endfacet
  facet normal 0 0 -1
    outer loop
      vertex 4.586566962301731 -0.15469088405370712 0
      vertex 4.5 -0.2009618952870369 0
      vertex 1.25 2.4500000029802322 0
    endloop
  endfacet
  facet normal 0 0 -1
    outer loop
      vertex 24.75 14.5 0
      vertex 18.75 0 0
      vertex 18.619193740189075 -0.004282154142856598 0
    endloop
  endfacet
  facet normal 0 0 -1
    outer loop
      vertex 16.75 -2 0
      vertex 14.25 -8 0
      vertex 14.25 2.4500000029802322 0
    endloop
  endfacet
  facet normal 0 0 -1
    outer loop
      vertex 16.754282154142857 -1.8691937401890755 0
      vertex 16.75 -2 0
      vertex 14.25 2.4500000029802322 0
    endloop
  endfacet
  facet normal 0 0 -1
    outer loop
      vertex 16.767110280692577 -1.7389476150274277 0
      vertex 16.754282154142857 -1.8691937401890755 0
      vertex 14.25 2.4500000029802322 0
    endloop
  endfacet
  facet normal 0 0 -1
    outer loop
      vertex 16.78842943906784 -1.6098193526268005 0
      vertex 16.767110280692577 -1.7389476150274277 0
      vertex 14.25 2.4500000029802322 0
    endloop
  endfacet
  facet normal 0 0 -1
    outer loop
      vertex 16.818148344755173 -1.482361912727356 0
      vertex 16.78842943906784 -1.6098193526268005 0
      vertex 14.25 2.4500000029802322 0
    endloop
  endfacet
  facet normal 0 0 -1
    outer loop
      vertex 16.85613974183798 -1.3571210727095604 0
      vertex 16.818148344755173 -1.482361912727356 0
      vertex 14.25 2.4500000029802322 0
    endloop
  endfacet
  facet normal 0 0 -1
    outer loop
      vertex 16.902240931987762 -1.234633132815361 0
      vertex 16.85613974183798 -1.3571210727095604 0
      vertex 14.25 2.4500000029802322 0
    endloop
  endfacet
  facet normal 0 0 -1
    outer loop
      vertex 16.95625451952219 -1.1154226213693619 0
      vertex 16.902240931987762 -1.234633132815361 0
      vertex 14.25 2.4500000029802322 0
    endloop
  endfacet
  facet normal 0 0 -1
    outer loop
      vertex 17.01794919371605 -1 0
      vertex 16.95625451952219 -1.1154226213693619 0
      vertex 14.25 2.4500000029802322 0
    endloop
  endfacet
  facet normal 0 0 -1
    outer loop
      vertex 17.087060771882534 -0.8888595327734947 0
      vertex 17.01794919371605 -1 0
      vertex 14.25 2.4500000029802322 0
    endloop
  endfacet
  facet normal 0 0 -1
    outer loop
      vertex 17.163293316960335 -0.7824771404266357 0
      vertex 17.087060771882534 -0.8888595327734947 0
      vertex 14.25 2.4500000029802322 0
    endloop
  endfacet
  facet normal 0 0 -1
    outer loop
      vertex 17.246320381760597 -0.6813083663582802 0
      vertex 17.163293316960335 -0.7824771404266357 0
      vertex 14.25 2.4500000029802322 0
    endloop
  endfacet
  facet normal 0 0 -1
    outer loop
      vertex 17.335786439478397 -0.5857864394783974 0
      vertex 17.246320381760597 -0.6813083663582802 0
      vertex 14.25 2.4500000029802322 0
    endloop
  endfacet
  facet normal 0 0 -1
    outer loop
      vertex 17.43130836635828 -0.49632038176059723 0
      vertex 17.335786439478397 -0.5857864394783974 0
      vertex 14.25 2.4500000029802322 0
    endloop
  endfacet
  facet normal 0 0 -1
    outer loop
      vertex 17.532477140426636 -0.4132933169603348 0
      vertex 17.43130836635828 -0.49632038176059723 0
      vertex 14.25 2.4500000029802322 0
    endloop
  endfacet
  facet normal 0 0 -1
    outer loop
      vertex 17.638859532773495 -0.337060771882534 0
      vertex 17.532477140426636 -0.4132933169603348 0
      vertex 14.25 2.4500000029802322 0
    endloop
  endfacet
  facet normal 0 0 -1
    outer loop
      vertex 17.75 -0.2679491937160492 0
      vertex 17.638859532773495 -0.337060771882534 0
      vertex 14.25 2.4500000029802322 0
    endloop
  endfacet
  facet normal 0 0 -1
    outer loop
      vertex 17.865422621369362 -0.2062545195221901 0
      vertex 17.75 -0.2679491937160492 0
      vertex 14.25 2.4500000029802322 0
    endloop
  endfacet
  facet normal 0 0 -1
    outer loop
      vertex -8.63268343359232 -0.07612046599388123 0
      vertex -8.692288689315319 -0.10312725603580475 0
      vertex -11.75 2.4500000029802322 0
    endloop
  endfacet
  facet normal 0 0 -1
    outer loop
      vertex 4.675974853336811 -0.11418069899082184 0
      vertex 4.586566962301731 -0.15469088405370712 0
      vertex 1.25 2.4500000029802322 0
    endloop
  endfacet
  facet normal 0 0 -1
    outer loop
      vertex 24.75 14.5 0
      vertex 18.619193740189075 -0.004282154142856598 0
      vertex 18.488947615027428 -0.017110280692577362 0
    endloop
  endfacet
  facet normal 0 0 -1
    outer loop
      vertex 17.98463313281536 -0.15224093198776245 0
      vertex 17.865422621369362 -0.2062545195221901 0
      vertex 14.25 2.4500000029802322 0
    endloop
  endfacet
  facet normal 0 0 -1
    outer loop
      vertex -8.57143946737051 -0.05306986719369888 0
      vertex -8.63268343359232 -0.07612046599388123 0
      vertex -11.75 2.4500000029802322 0
    endloop
  endfacet
  facet normal 0 0 -1
    outer loop
      vertex 4.767840802669525 -0.07960480451583862 0
      vertex 4.675974853336811 -0.11418069899082184 0
      vertex 1.25 2.4500000029802322 0
    endloop
  endfacet
  facet normal 0 0 -1
    outer loop
      vertex 24.75 14.5 0
      vertex 18.488947615027428 -0.017110280692577362 0
      vertex 18.3598193526268 -0.038429439067840576 0
    endloop
  endfacet
  facet normal 0 0 -1
    outer loop
      vertex 18.10712107270956 -0.10613974183797836 0
      vertex 17.98463313281536 -0.15224093198776245 0
      vertex 14.25 2.4500000029802322 0
    endloop
  endfacet
  facet normal 0 0 -1
    outer loop
      vertex -8.508819043636322 -0.034074172377586365 0
      vertex -8.57143946737051 -0.05306986719369888 0
      vertex -11.75 2.4500000029802322 0
    endloop
  endfacet
  facet normal 0 0 -1
    outer loop
      vertex 24.75 14.5 0
      vertex 18.3598193526268 -0.038429439067840576 0
      vertex 18.232361912727356 -0.06814834475517273 0
    endloop
  endfacet
  facet normal 0 0 -1
    outer loop
      vertex 4.861771434545517 -0.05111125856637955 0
      vertex 4.767840802669525 -0.07960480451583862 0
      vertex 1.25 2.4500000029802322 0
    endloop
  endfacet
  facet normal 0 0 -1
    outer loop
      vertex -8.4450903236866 -0.019214719533920288 0
      vertex -8.508819043636322 -0.034074172377586365 0
      vertex -11.75 2.4500000029802322 0
    endloop
  endfacet
  facet normal 0 0 -1
    outer loop
      vertex 18.232361912727356 -0.06814834475517273 0
      vertex 18.10712107270956 -0.10613974183797836 0
      vertex 14.25 2.4500000029802322 0
    endloop
  endfacet
  facet normal 0 0 -1
    outer loop
      vertex 24.75 14.5 0
      vertex 18.232361912727356 -0.06814834475517273 0
      vertex 14.25 2.4500000029802322 0
    endloop
  endfacet
  facet normal 0 0 -1
    outer loop
      vertex -11.75 2.4500000029802322 0
      vertex -14.25 2.4500000029802322 0
      vertex -24.75 14.5 0
    endloop
  endfacet
  facet normal 0 0 -1
    outer loop
      vertex 24.75 14.5 0
      vertex 14.25 2.4500000029802322 0
      vertex 11.75 2.4500000029802322 0
    endloop
  endfacet
  facet normal 0 0 -1
    outer loop
      vertex 4.9573645144701 -0.028822079300880432 0
      vertex 4.861771434545517 -0.05111125856637955 0
      vertex 1.25 2.4500000029802322 0
    endloop
  endfacet
  facet normal 0 0 -1
    outer loop
      vertex -8.380526192486286 -0.008555136620998383 0
      vertex -8.4450903236866 -0.019214719533920288 0
      vertex -11.75 2.4500000029802322 0
    endloop
  endfacet
  facet normal 0 0 -1
    outer loop
      vertex 5.054210714995861 -0.012832708656787872 0
      vertex 4.9573645144701 -0.028822079300880432 0
      vertex 1.25 2.4500000029802322 0
    endloop
  endfacet
  facet normal 0 0 -1
    outer loop
      vertex -8.315403126180172 -0.0021410733461380005 0
      vertex -8.380526192486286 -0.008555136620998383 0
      vertex -11.75 2.4500000029802322 0
    endloop
  endfacet
  facet normal 0 0 -1
    outer loop
      vertex 5.151895307004452 -0.0032116174697875977 0
      vertex 5.054210714995861 -0.012832708656787872 0
      vertex 1.25 2.4500000029802322 0
    endloop
  endfacet
  facet normal 0 0 -1
    outer loop
      vertex -8.25 0 0
      vertex -8.315403126180172 -0.0021410733461380005 0
      vertex -11.75 2.4500000029802322 0
    endloop
  endfacet
  facet normal 0 0 -1
    outer loop
      vertex -1.25 2.4500000029802322 0
      vertex -8.25 0 0
      vertex -11.75 2.4500000029802322 0
    endloop
  endfacet
  facet normal 0 0 -1
    outer loop
      vertex -1.25 2.4500000029802322 0
      vertex -11.75 2.4500000029802322 0
      vertex -24.75 14.5 0
    endloop
  endfacet
  facet normal 0 0 -1
    outer loop
      vertex -1.25 2.4500000029802322 0
      vertex -24.75 14.5 0
      vertex 24.75 14.5 0
    endloop
  endfacet
  facet normal 0 0 -1
    outer loop
      vertex 1.25 2.4500000029802322 0
      vertex -1.25 2.4500000029802322 0
      vertex 24.75 14.5 0
    endloop
  endfacet
  facet normal 0 0 -1
    outer loop
      vertex 1.25 2.4500000029802322 0
      vertex 24.75 14.5 0
      vertex 11.75 2.4500000029802322 0
    endloop
  endfacet
  facet normal 0 0 -1
    outer loop
      vertex 5.151895307004452 -0.0032116174697875977 0
      vertex 1.25 2.4500000029802322 0
      vertex 11.75 2.4500000029802322 0
    endloop
  endfacet
  facet normal 0 0 -1
    outer loop
      vertex 5.151895307004452 -0.0032116174697875977 0
      vertex 11.75 2.4500000029802322 0
      vertex 5.25 0 0
    endloop
  endfacet
endsolid OpenSCAD_Model
